<svg id="Layer_1" data-name="Layer 1" xmlns="http://www.w3.org/2000/svg" viewBox="0 0 472.93 473.71"><defs><style>.cls-1{fill:#632f11;}.cls-2{fill:#c68c56;}.cls-3{fill:#652d00;}</style></defs><title>logo-en</title><path class="cls-1" d="M233.81,472.8c-17.73,0-29.38-5.93-30.62-6.58-3-1.21-85.37-35.14-115.14-47.37-31.61-13-37-37.83-37.51-40.59L5.61,270.49c-.51-1.24-1-2.46-1.47-3.66-12.93-34,.19-60.26,1.23-62.25,1.22-3,33.65-82.71,46-111.88S86,56.08,86.9,55.78c.76-.31,88.69-35.72,120.47-50.22A61.87,61.87,0,0,1,233.24,0a65.53,65.53,0,0,1,26.64,5.47c.76.3,87.41,35.22,118.91,48.94,28.06,12.23,37.3,37.22,37.68,38.29.33.77,34.93,85,48.48,116.23,12,27.79.82,53.26.34,54.32-.31.78-34.11,83.57-47.47,115.33-13.66,32.49-42.23,41.94-43.44,42.32-.64.29-80.45,34.64-111.16,46.34A82.38,82.38,0,0,1,233.81,472.8ZM233.24,3.51a58.43,58.43,0,0,0-24.41,5.23C177,23.27,89,58.72,88.08,59.08c-.33.1-21.68,7.24-33.46,35C42.08,123.63,8.92,205.17,8.57,206l-.08.17c-.12.25-13.65,26.32-1.09,59.44q.67,1.75,1.43,3.56L53.93,377.28l0,.21c.06.25,4.51,25.42,35.42,38.13L204.62,463l.18.09c.11.06,11.61,6.2,29,6.2A79,79,0,0,0,262,464c30.63-11.67,110.37-46,111.18-46.34.43-.15,28.42-9.46,41.44-40.41C428,345.48,461.73,262.7,462.08,261.88c.13-.3,11.06-25.23-.34-51.55C448.17,179.05,413.55,94.8,413.21,93.95A69.84,69.84,0,0,0,377.4,57.62C345.94,43.91,259.32,9,258.45,8.66A63.43,63.43,0,0,0,233.24,3.51Z"/><path class="cls-2" d="M341.26,154.77c-1.46-11.31-6.81-12.7-9.59-15.51s-.31-14.24-18-18.37c-13.45-3.15-20.09-30.74-61.65-34.17-59-4.9-129.74,50.6-138.45,94.33-7.54,37.74,2.82,59.45,5.56,81s-4.64,26.17-2.09,29.52c3.87,5,13.19,0,30.29,10.09,14.39,8.5,27.78,27.55,61.32,32.42,58.61,8.54,133.91-45.72,144.45-102,8.16-43.48-8.18-49-11.83-77.36"/><path class="cls-3" d="M423.35,228.61a10.08,10.08,0,0,1-1.51-2.21,7.69,7.69,0,0,1,1.25-2.39,4.65,4.65,0,0,0,1.1-3.42,4.54,4.54,0,0,0-1.6-3.19,9.06,9.06,0,0,1-1.69-2.12h0a7.88,7.88,0,0,1,1.13-2.45,4.75,4.75,0,0,0,.91-3.47,4.31,4.31,0,0,0-1.85-3.09,8.12,8.12,0,0,1-1.81-2,8.66,8.66,0,0,1,1-2.52,4.74,4.74,0,0,0,.76-3.53,4.82,4.82,0,0,0-2.09-3,8.29,8.29,0,0,1-1.89-1.92,8.17,8.17,0,0,1,.87-2.57,4.33,4.33,0,0,0,.47-3.56,4.71,4.71,0,0,0-2.22-2.83,8.37,8.37,0,0,1-2-1.81,9.69,9.69,0,0,1,.71-2.62,4.62,4.62,0,0,0,.23-3.58,4.78,4.78,0,0,0-2.36-2.69,9.16,9.16,0,0,1-2.09-1.69,8.67,8.67,0,0,1,.49-2.64,4.65,4.65,0,0,0,.06-3.59,4.57,4.57,0,0,0-2.49-2.58,8.32,8.32,0,0,1-2.23-1.53,8.25,8.25,0,0,1,.34-2.68,4.63,4.63,0,0,0-.13-3.6A4.37,4.37,0,0,0,404,153a8.65,8.65,0,0,1-2.32-1.41,8,8,0,0,1,.21-2.71,4.51,4.51,0,0,0-.36-3.58,4.69,4.69,0,0,0-2.84-2.22,8.32,8.32,0,0,1-2.38-1.28,9,9,0,0,1,.09-2.73,4.45,4.45,0,0,0-.62-3.51,4.63,4.63,0,0,0-2.92-2.06,8.63,8.63,0,0,1-2.44-1.16,10.13,10.13,0,0,1-.11-2.69,4.73,4.73,0,0,0-3.84-5.4,9.71,9.71,0,0,1-2.52-1,8.21,8.21,0,0,1-.31-2.68,4.62,4.62,0,0,0-1-3.46,4.34,4.34,0,0,0-3.15-1.71,8.41,8.41,0,0,1-2.59-.82,8.51,8.51,0,0,1-.43-2.67,4.65,4.65,0,0,0-1.16-3.4,4.77,4.77,0,0,0-3.29-1.49,8.38,8.38,0,0,1-2.61-.68,8.64,8.64,0,0,1-.59-2.66,4.47,4.47,0,0,0-1.4-3.3,4.65,4.65,0,0,0-3.35-1.3,8.28,8.28,0,0,1-2.65-.56,10.08,10.08,0,0,1-.76-2.59,4.56,4.56,0,0,0-1.59-3.19,4.62,4.62,0,0,0-3.41-1.14,9.45,9.45,0,0,1-2.66-.38,8.24,8.24,0,0,1-.92-2.52,4.69,4.69,0,0,0-1.77-3.13,4.43,4.43,0,0,0-3.47-.93,8.79,8.79,0,0,1-2.71-.17,8.2,8.2,0,0,1-1-2.49,4.71,4.71,0,0,0-2-3,4.54,4.54,0,0,0-3.54-.68,8.73,8.73,0,0,1-2.69,0,8.61,8.61,0,0,1-1.2-2.45,4.24,4.24,0,0,0-2.13-2.88,4.7,4.7,0,0,0-3.56-.48,8,8,0,0,1-2.69.1,9.43,9.43,0,0,1-1.32-2.37,4.61,4.61,0,0,0-2.33-2.72,4.71,4.71,0,0,0-3.57-.3,9,9,0,0,1-2.68.24A8.07,8.07,0,0,1,314,65.15a4.66,4.66,0,0,0-2.46-2.61,4.59,4.59,0,0,0-3.58-.11,8.6,8.6,0,0,1-2.69.47,8.43,8.43,0,0,1-1.6-2.17,4.71,4.71,0,0,0-2.59-2.48,4.48,4.48,0,0,0-3.62.16,8.57,8.57,0,0,1-2.62.62,8.53,8.53,0,0,1-1.73-2.1,4.5,4.5,0,0,0-2.75-2.33,4.75,4.75,0,0,0-3.59.39,8.06,8.06,0,0,1-2.59.75,8.16,8.16,0,0,1-1.84-2,4.47,4.47,0,0,0-2.91-2.09,4.6,4.6,0,0,0-3.51.58,8.35,8.35,0,0,1-2.57.87,10.31,10.31,0,0,1-2-1.85,4.53,4.53,0,0,0-3-1.92,4.64,4.64,0,0,0-3.51.75,8.84,8.84,0,0,1-2.49,1,8.47,8.47,0,0,1-2.09-1.68,4.67,4.67,0,0,0-6.56-.82,8.5,8.5,0,0,1-2.43,1.24,8.7,8.7,0,0,1-2.17-1.59,4.68,4.68,0,0,0-3.23-1.61,4.35,4.35,0,0,0-3.37,1.2,8.57,8.57,0,0,1-2.35,1.36,8,8,0,0,1-2.27-1.48,4.81,4.81,0,0,0-3.31-1.44,4.77,4.77,0,0,0-3.31,1.44A8,8,0,0,1,229,49.2a8.27,8.27,0,0,1-2.32-1.36,4.42,4.42,0,0,0-3.4-1.2,4.67,4.67,0,0,0-3.2,1.61,8.67,8.67,0,0,1-2.18,1.59,8.37,8.37,0,0,1-2.43-1.24,4.63,4.63,0,0,0-3.44-1,4.68,4.68,0,0,0-3.12,1.77,8.47,8.47,0,0,1-2.08,1.69,9.38,9.38,0,0,1-2.48-1,4.66,4.66,0,0,0-3.51-.75,4.6,4.6,0,0,0-3,1.92,9.42,9.42,0,0,1-2,1.84,8.22,8.22,0,0,1-2.54-.87,4.71,4.71,0,0,0-3.54-.58,4.58,4.58,0,0,0-2.91,2.09,8.3,8.3,0,0,1-1.82,2,8.1,8.1,0,0,1-2.6-.75,4.78,4.78,0,0,0-3.59-.39,4.45,4.45,0,0,0-2.73,2.33,8.82,8.82,0,0,1-1.73,2.1,8.77,8.77,0,0,1-2.64-.62,4.42,4.42,0,0,0-3.6-.16,4.75,4.75,0,0,0-2.61,2.48,8.25,8.25,0,0,1-1.59,2.17,8.56,8.56,0,0,1-2.69-.47,4.56,4.56,0,0,0-3.57.11,4.66,4.66,0,0,0-2.47,2.61,8,8,0,0,1-1.5,2.23,8.93,8.93,0,0,1-2.67-.24,4.72,4.72,0,0,0-5.91,3,9.18,9.18,0,0,1-1.31,2.37,8,8,0,0,1-2.69-.1,4.69,4.69,0,0,0-3.56.48,4.3,4.3,0,0,0-2.16,2.88,8.23,8.23,0,0,1-1.18,2.45,8.81,8.81,0,0,1-2.7,0A4.56,4.56,0,0,0,128,79,4.72,4.72,0,0,0,126,82a8.35,8.35,0,0,1-1,2.49,8.79,8.79,0,0,1-2.71.17,4.37,4.37,0,0,0-3.46.93A4.69,4.69,0,0,0,117,88.72a7.7,7.7,0,0,1-.91,2.52,9.64,9.64,0,0,1-2.67.38,4.67,4.67,0,0,0-5,4.33,9.8,9.8,0,0,1-.74,2.59,8.18,8.18,0,0,1-2.63.56,4.61,4.61,0,0,0-3.35,1.3,4.35,4.35,0,0,0-1.41,3.3,8.79,8.79,0,0,1-.58,2.66,8.59,8.59,0,0,1-2.63.68,4.72,4.72,0,0,0-3.27,1.49,4.67,4.67,0,0,0-1.18,3.4,8,8,0,0,1-.42,2.67,8.53,8.53,0,0,1-2.58.82,4.34,4.34,0,0,0-3.16,1.71,4.72,4.72,0,0,0-1,3.46,7.94,7.94,0,0,1-.28,2.68,10.25,10.25,0,0,1-2.53,1,4.67,4.67,0,0,0-3,1.91,4.82,4.82,0,0,0-.82,3.49,9.9,9.9,0,0,1-.1,2.69,8.7,8.7,0,0,1-2.43,1.16,4.64,4.64,0,0,0-2.95,2.06,4.49,4.49,0,0,0-.61,3.51,8.93,8.93,0,0,1,.09,2.73,8.28,8.28,0,0,1-2.39,1.28,4.72,4.72,0,0,0-2.84,2.22,4.52,4.52,0,0,0-.33,3.58,9.1,9.1,0,0,1,.21,2.71A8.79,8.79,0,0,1,65.14,153a4.38,4.38,0,0,0-2.67,2.38,4.71,4.71,0,0,0-.13,3.6,8.31,8.31,0,0,1,.34,2.68,8.25,8.25,0,0,1-2.25,1.53A4.69,4.69,0,0,0,58,169.33a8.71,8.71,0,0,1,.49,2.64,9.42,9.42,0,0,1-2.1,1.69,4.71,4.71,0,0,0-2.34,2.69,4.66,4.66,0,0,0,.23,3.58,9.3,9.3,0,0,1,.71,2.62,8,8,0,0,1-2,1.81,4.78,4.78,0,0,0-2.21,2.83,4.37,4.37,0,0,0,.47,3.56,7.83,7.83,0,0,1,.87,2.57,7.84,7.84,0,0,1-1.91,1.92,4.77,4.77,0,0,0-2.06,3,4.68,4.68,0,0,0,.73,3.53,8.35,8.35,0,0,1,1,2.52,8.46,8.46,0,0,1-1.8,2,4.4,4.4,0,0,0-1.86,3.09,4.81,4.81,0,0,0,.93,3.47,8.13,8.13,0,0,1,1.14,2.45,8.9,8.9,0,0,1-1.7,2.12A4.68,4.68,0,0,0,45,220.59a4.76,4.76,0,0,0,1.1,3.42,8.29,8.29,0,0,1,1.27,2.39,10.69,10.69,0,0,1-1.52,2.21,4.71,4.71,0,0,0-.17,6.63,4.45,4.45,0,0,0,3.26,1.36,4.77,4.77,0,0,0,3.3-1.32,4.42,4.42,0,0,0,.16-6.39,6.91,6.91,0,0,1-1.33-2.31,7.82,7.82,0,0,1,1.6-2.13,4.45,4.45,0,0,0,.48-6.38A5.63,5.63,0,0,1,52,215.69a8,8,0,0,1,1.69-2,4.32,4.32,0,0,0,1.75-3,4.81,4.81,0,0,0-.88-3.35,6,6,0,0,1-1-2.44,7.69,7.69,0,0,1,1.8-1.94,4.69,4.69,0,0,0,1.29-6.26,5.7,5.7,0,0,1-.9-2.49,7.82,7.82,0,0,1,1.9-1.85,4.79,4.79,0,0,0,2.1-2.73,4.38,4.38,0,0,0-.43-3.43,5.9,5.9,0,0,1-.76-2.55,7,7,0,0,1,2-1.73,4.43,4.43,0,0,0,2-6,5.75,5.75,0,0,1-.6-2.6,8,8,0,0,1,2.16-1.58,4.42,4.42,0,0,0,2.32-5.94,5.71,5.71,0,0,1-.39-2.6,7.88,7.88,0,0,1,2.24-1.46,4.5,4.5,0,0,0,2.55-2.34,4.79,4.79,0,0,0,.17-3.46,5.93,5.93,0,0,1-.25-2.62,7.8,7.8,0,0,1,2.28-1.34,4.66,4.66,0,0,0,2.69-2.17,4.39,4.39,0,0,0,.4-3.43,6.06,6.06,0,0,1-.12-2.66,7.65,7.65,0,0,1,2.35-1.2,4.7,4.7,0,0,0,2.84-2,4.45,4.45,0,0,0,.58-3.42,6.15,6.15,0,0,1,0-2.66,7,7,0,0,1,2.44-1,4.43,4.43,0,0,0,3.7-5.2,5.6,5.6,0,0,1,.21-2.64,8,8,0,0,1,2.51-.88,4.46,4.46,0,0,0,3-1.65,4.89,4.89,0,0,0,1-3.35,5.8,5.8,0,0,1,.38-2.61,7.83,7.83,0,0,1,2.54-.75,4.45,4.45,0,0,0,3.09-1.5,4.38,4.38,0,0,0,1.21-3.23,6,6,0,0,1,.5-2.58,7.81,7.81,0,0,1,2.57-.63A4.69,4.69,0,0,0,108.2,107a4.38,4.38,0,0,0,1.37-3.19,6.11,6.11,0,0,1,.65-2.58,6.76,6.76,0,0,1,2.61-.46,4.41,4.41,0,0,0,3.3-1.05,4.57,4.57,0,0,0,1.53-3.12,5.51,5.51,0,0,1,.8-2.52,8,8,0,0,1,2.66-.28,4.46,4.46,0,0,0,3.35-.89,4.67,4.67,0,0,0,1.71-3,6.13,6.13,0,0,1,1-2.46,8.07,8.07,0,0,1,2.66-.13,4.33,4.33,0,0,0,3.37-.73,4.49,4.49,0,0,0,1.92-2.85,5.89,5.89,0,0,1,1.11-2.41,7.61,7.61,0,0,1,2.65,0,4.89,4.89,0,0,0,3.42-.47,4.5,4.5,0,0,0,2.08-2.76,6.06,6.06,0,0,1,1.22-2.37,7,7,0,0,1,2.65.16,4.5,4.5,0,0,0,3.48-.25A4.43,4.43,0,0,0,153.92,73a5.87,5.87,0,0,1,1.38-2.29,8.43,8.43,0,0,1,2.63.38A4.44,4.44,0,0,0,161.4,71a4.64,4.64,0,0,0,2.38-2.55,5.72,5.72,0,0,1,1.52-2.15,8.08,8.08,0,0,1,2.62.51,4.36,4.36,0,0,0,3.43.1,4.69,4.69,0,0,0,2.53-2.34,6,6,0,0,1,1.66-2.07,7.8,7.8,0,0,1,2.57.64,4.72,4.72,0,0,0,3.44.31,4.4,4.4,0,0,0,2.67-2.19,6.19,6.19,0,0,1,1.77-2,7.74,7.74,0,0,1,2.51.77,4.72,4.72,0,0,0,3.42.58,4.42,4.42,0,0,0,2.8-2,6.16,6.16,0,0,1,1.88-1.9,7,7,0,0,1,2.48,1,4.48,4.48,0,0,0,6.3-1.12,5.15,5.15,0,0,1,2-1.76,8,8,0,0,1,2.43,1.13,4.45,4.45,0,0,0,3.32.94,4.59,4.59,0,0,0,3-1.74,5.75,5.75,0,0,1,2.08-1.59,8.15,8.15,0,0,1,2.36,1.25,4.36,4.36,0,0,0,3.27,1.11,4.87,4.87,0,0,0,3.12-1.5,5.65,5.65,0,0,1,2.17-1.48,7.49,7.49,0,0,1,2.26,1.36,4.48,4.48,0,0,0,3.21,1.28,4.42,4.42,0,0,0,3.2-1.28,5.89,5.89,0,0,1,2.27-1.36,7.94,7.94,0,0,1,2.19,1.48,4.74,4.74,0,0,0,3.1,1.5,4.4,4.4,0,0,0,3.28-1.11A6,6,0,0,1,251,53.55a7.52,7.52,0,0,1,2.09,1.59,4.56,4.56,0,0,0,3,1.74,4.4,4.4,0,0,0,3.31-.94,6.05,6.05,0,0,1,2.44-1.13,6.77,6.77,0,0,1,2,1.76,4.45,4.45,0,0,0,6.28,1.12,5.52,5.52,0,0,1,2.49-1,8.18,8.18,0,0,1,1.88,1.9,4.45,4.45,0,0,0,2.81,2,4.66,4.66,0,0,0,3.4-.58,6,6,0,0,1,2.51-.77,8.3,8.3,0,0,1,1.78,2,4.41,4.41,0,0,0,2.68,2.19,4.71,4.71,0,0,0,3.44-.31,5.81,5.81,0,0,1,2.58-.64,7.62,7.62,0,0,1,1.63,2.07,4.71,4.71,0,0,0,2.55,2.34,4.39,4.39,0,0,0,3.44-.1,6.2,6.2,0,0,1,2.62-.51,8,8,0,0,1,1.54,2.15,4.42,4.42,0,0,0,5.81,2.62,6.1,6.1,0,0,1,2.63-.38A7.07,7.07,0,0,1,315.27,73,4.42,4.42,0,0,0,321,75.92a5.47,5.47,0,0,1,2.64-.16,7.85,7.85,0,0,1,1.24,2.37,4.44,4.44,0,0,0,2.07,2.76,4.9,4.9,0,0,0,3.43.47,5.73,5.73,0,0,1,2.64,0,8.29,8.29,0,0,1,1.11,2.41A4.45,4.45,0,0,0,336,86.62a4.33,4.33,0,0,0,3.37.73,6.09,6.09,0,0,1,2.66.13,7.72,7.72,0,0,1,1,2.46,4.73,4.73,0,0,0,1.72,3,4.43,4.43,0,0,0,3.35.89,6.14,6.14,0,0,1,2.64.28,6.89,6.89,0,0,1,.83,2.52,4.38,4.38,0,0,0,4.82,4.18,5.39,5.39,0,0,1,2.62.46,8.07,8.07,0,0,1,.63,2.58A4.43,4.43,0,0,0,361,107a4.75,4.75,0,0,0,3.23,1.26,5.62,5.62,0,0,1,2.54.63,8,8,0,0,1,.53,2.58,4.31,4.31,0,0,0,1.18,3.23,4.51,4.51,0,0,0,3.11,1.5,6,6,0,0,1,2.53.75,8,8,0,0,1,.39,2.61,4.86,4.86,0,0,0,.94,3.35,4.57,4.57,0,0,0,3.06,1.65,5.94,5.94,0,0,1,2.5.88,6.93,6.93,0,0,1,.21,2.64,4.43,4.43,0,0,0,3.7,5.2,5.4,5.4,0,0,1,2.45,1.06,8.31,8.31,0,0,1,0,2.65,4.5,4.5,0,0,0,.58,3.42,4.74,4.74,0,0,0,2.84,2,5.91,5.91,0,0,1,2.35,1.2,8.2,8.2,0,0,1-.12,2.66,4.39,4.39,0,0,0,.41,3.43,4.61,4.61,0,0,0,2.67,2.17,5.84,5.84,0,0,1,2.28,1.34,7.3,7.3,0,0,1-.24,2.62,4.67,4.67,0,0,0,.18,3.46,4.42,4.42,0,0,0,2.53,2.34,5.76,5.76,0,0,1,2.22,1.46,7.7,7.7,0,0,1-.39,2.6,4.46,4.46,0,0,0,2.34,5.94,5.88,5.88,0,0,1,2.13,1.58,7.66,7.66,0,0,1-.6,2.6,4.53,4.53,0,0,0-.28,3.46,4.6,4.6,0,0,0,2.32,2.59,5.33,5.33,0,0,1,2,1.73,8.14,8.14,0,0,1-.75,2.55,4.39,4.39,0,0,0-.46,3.43,5,5,0,0,0,2.11,2.73,5.89,5.89,0,0,1,1.9,1.85,8,8,0,0,1-.89,2.49,4.65,4.65,0,0,0,1.27,6.26,5.82,5.82,0,0,1,1.82,1.94,7.89,7.89,0,0,1-1,2.44,4.86,4.86,0,0,0-.87,3.36,4.4,4.4,0,0,0,1.76,3,6.13,6.13,0,0,1,1.7,2,7.41,7.41,0,0,1-1.14,2.38,4.4,4.4,0,0,0,.48,6.38,6,6,0,0,1,1.59,2.13,6.61,6.61,0,0,1-1.32,2.31,4.38,4.38,0,0,0,.17,6.39,4.77,4.77,0,0,0,3.3,1.32,4.49,4.49,0,0,0,3.26-1.36,4.72,4.72,0,0,0-.18-6.63M49,233.85A1.85,1.85,0,0,1,47.17,232a1.83,1.83,0,0,1,1.91-1.79A1.86,1.86,0,0,1,50.9,232a1.89,1.89,0,0,1-1.91,1.8m.49-11a1.83,1.83,0,0,1-1.7-2,1.79,1.79,0,0,1,2-1.67,1.88,1.88,0,0,1,1.71,2,1.85,1.85,0,0,1-2,1.68m3.21-12.54a1.83,1.83,0,0,1-2.08,1.56,1.86,1.86,0,0,1-1.6-2.09,1.79,1.79,0,0,1,2.08-1.56,1.91,1.91,0,0,1,1.6,2.09m1.83-10.78a1.81,1.81,0,0,1-2.13,1.44,1.84,1.84,0,1,1,.73-3.6,1.8,1.8,0,0,1,1.4,2.16m2.55-10.61a1.89,1.89,0,0,1-2.29,1.27,1.79,1.79,0,0,1-1.29-2.25,1.85,1.85,0,0,1,3.58,1m3.17-10.48a1.88,1.88,0,0,1-2.35,1.17,1.84,1.84,0,1,1,2.35-1.17M64,168.16a1.85,1.85,0,0,1-2.4,1,1.83,1.83,0,0,1-1-2.41,1.79,1.79,0,0,1,2.38-1A1.88,1.88,0,0,1,64,168.16m4.36-10a1.84,1.84,0,0,1-2.44.88,1.87,1.87,0,0,1-.92-2.48,1.82,1.82,0,0,1,2.47-.86,1.9,1.9,0,0,1,.9,2.46m4.95-9.74A1.86,1.86,0,0,1,70,146.6a1.89,1.89,0,0,1,2.56-.7,1.83,1.83,0,0,1,.71,2.49M78.85,139a1.86,1.86,0,0,1-2.54.56,1.8,1.8,0,0,1-.59-2.53,1.85,1.85,0,0,1,3.13,2m6.1-9.07a1.86,1.86,0,0,1-3-2.16,1.83,1.83,0,0,1,2.59-.42,1.86,1.86,0,0,1,.44,2.57m6.6-8.71a1.84,1.84,0,0,1-2.59.28,1.87,1.87,0,0,1-.3-2.61,1.79,1.79,0,0,1,2.58-.28,1.89,1.89,0,0,1,.31,2.61m7.1-8.31a1.85,1.85,0,0,1-2.74-2.49,1.88,1.88,0,0,1,2.64-.1,1.84,1.84,0,0,1,.1,2.59m7.61-7.84a1.89,1.89,0,0,1-2.63-.06,1.81,1.81,0,0,1,0-2.59,1.85,1.85,0,0,1,2.64.07,1.82,1.82,0,0,1,0,2.58m8-7.38a1.85,1.85,0,0,1-2.6-.2,1.84,1.84,0,1,1,2.78-2.41,1.85,1.85,0,0,1-.18,2.61m8.46-6.91a1.81,1.81,0,0,1-2.57-.34,1.87,1.87,0,0,1,.31-2.61,1.81,1.81,0,0,1,2.58.34,1.89,1.89,0,0,1-.32,2.6m8.85-6.42a1.84,1.84,0,0,1-2.55-.48,1.88,1.88,0,0,1,.47-2.59,1.85,1.85,0,0,1,2.58.53,1.83,1.83,0,0,1-.5,2.54m9.23-5.84a1.88,1.88,0,0,1-2.53-.68,1.81,1.81,0,0,1,.64-2.52,1.88,1.88,0,0,1,2.54.69,1.83,1.83,0,0,1-.66,2.51m9.57-5.28a1.86,1.86,0,1,1,.79-2.5,1.87,1.87,0,0,1-.79,2.5m9.87-4.73a1.87,1.87,0,0,1-2.44-.93,1.85,1.85,0,0,1,.93-2.46,1.81,1.81,0,0,1,2.42.94,1.87,1.87,0,0,1-.91,2.45m10.1-4.15A1.82,1.82,0,0,1,168,63.26a1.87,1.87,0,0,1,1.08-2.41,1.81,1.81,0,0,1,2.37,1.1,1.9,1.9,0,0,1-1.08,2.37m10.35-3.51a1.86,1.86,0,0,1-2.3-1.22,1.84,1.84,0,0,1,1.21-2.33A1.9,1.9,0,0,1,182,58.53a1.8,1.8,0,0,1-1.22,2.28M191.28,58a1.89,1.89,0,0,1-2.22-1.4,1.8,1.8,0,0,1,1.36-2.22,1.86,1.86,0,0,1,.87,3.62M202,55.73a1.88,1.88,0,0,1-2.16-1.51,1.85,1.85,0,1,1,3.63-.64A1.88,1.88,0,0,1,202,55.73m10.79-1.61a1.85,1.85,0,0,1-2-1.61,1.87,1.87,0,0,1,1.62-2.07,1.82,1.82,0,0,1,2,1.62,1.9,1.9,0,0,1-1.62,2.07m10.89-1a1.82,1.82,0,0,1-1.93-1.72,1.86,1.86,0,0,1,1.72-2,1.78,1.78,0,0,1,1.92,1.73,1.88,1.88,0,0,1-1.71,2m10.92-.36A1.79,1.79,0,0,1,232.76,51a1.83,1.83,0,1,1,3.67,0,1.8,1.8,0,0,1-1.83,1.81m10.92.36a1.89,1.89,0,0,1-1.72-2,1.79,1.79,0,0,1,1.93-1.73,1.87,1.87,0,0,1,1.73,2,1.85,1.85,0,0,1-1.95,1.72m12.93-.63a1.84,1.84,0,0,1-2,1.61A1.87,1.87,0,0,1,254.8,52a1.81,1.81,0,0,1,2-1.62,1.86,1.86,0,0,1,1.61,2.07m10.91,1.71a1.89,1.89,0,0,1-2.16,1.51,1.86,1.86,0,0,1-1.47-2.16,1.8,1.8,0,0,1,2.13-1.49,1.82,1.82,0,0,1,1.49,2.14m10.77,2.36a1.84,1.84,0,1,1-3.58-.84,1.85,1.85,0,0,1,2.22-1.38,1.81,1.81,0,0,1,1.36,2.22m10.63,3a1.86,1.86,0,0,1-2.29,1.22,1.81,1.81,0,0,1-1.23-2.28,1.9,1.9,0,0,1,2.31-1.27,1.82,1.82,0,0,1,1.21,2.33m10.4,3.67a1.79,1.79,0,0,1-2.35,1.06A1.86,1.86,0,0,1,297.73,62a1.81,1.81,0,0,1,2.36-1.1,1.87,1.87,0,0,1,1.07,2.41m10.19,4.28A1.84,1.84,0,1,1,308,66a1.8,1.8,0,0,1,2.42-.94,1.84,1.84,0,0,1,.92,2.46m9.91,4.85a1.86,1.86,0,0,1-2.48.82,1.88,1.88,0,0,1-.8-2.5,1.84,1.84,0,1,1,3.28,1.67m9.6,5.42a1.89,1.89,0,0,1-2.53.68,1.84,1.84,0,0,1-.64-2.51,1.87,1.87,0,0,1,2.53-.69,1.78,1.78,0,0,1,.64,2.52m9.25,6a1.83,1.83,0,0,1-3-2.06,1.84,1.84,0,0,1,2.57-.53,1.86,1.86,0,0,1,.46,2.59M349,90.41a1.83,1.83,0,0,1-2.58.34,1.89,1.89,0,0,1-.33-2.6,1.83,1.83,0,0,1,2.59-.34,1.86,1.86,0,0,1,.32,2.61m8.47,7.05a1.85,1.85,0,0,1-2.6.2,1.87,1.87,0,0,1-.17-2.61,1.83,1.83,0,1,1,2.77,2.41m8.09,7.53a1.89,1.89,0,0,1-2.63.06,1.85,1.85,0,0,1,2.59-2.64,1.79,1.79,0,0,1,0,2.58m7.57,8a1.84,1.84,0,0,1-2.47-2.72,1.88,1.88,0,0,1,2.64.1,1.86,1.86,0,0,1-.18,2.62m7.09,8.46a1.83,1.83,0,0,1-2.58-.28,1.88,1.88,0,0,1,.32-2.61,1.79,1.79,0,0,1,2.58.28,1.85,1.85,0,0,1-.32,2.61m6.6,8.86a1.87,1.87,0,0,1-2.58-.43,1.85,1.85,0,0,1,.44-2.57,1.82,1.82,0,0,1,2.58.42,1.87,1.87,0,0,1-.45,2.58m6.08,9.21a1.9,1.9,0,0,1-2.58-.56,1.86,1.86,0,0,1,3.14-2,1.8,1.8,0,0,1-.57,2.53m5.48,9.57a1.83,1.83,0,0,1-2.48-.72,1.81,1.81,0,0,1,.7-2.49,1.87,1.87,0,0,1,2.54.7,1.83,1.83,0,0,1-.77,2.51m2.47,9a1.89,1.89,0,0,1,.89-2.46,1.82,1.82,0,0,1,2.47.86,1.88,1.88,0,0,1-.93,2.48,1.82,1.82,0,0,1-2.42-.88m4.36,10a1.86,1.86,0,0,1,1.06-2.41,1.78,1.78,0,0,1,2.37,1,1.85,1.85,0,0,1-3.42,1.39M409,178.41a1.85,1.85,0,1,1,2.34,1.17,1.87,1.87,0,0,1-2.34-1.17m3.14,10.48a1.86,1.86,0,0,1,3.59-1,1.79,1.79,0,0,1-1.28,2.25,1.91,1.91,0,0,1-2.31-1.27m2.57,10.61a1.79,1.79,0,0,1,1.4-2.16,1.84,1.84,0,1,1,.73,3.6,1.78,1.78,0,0,1-2.13-1.44m1.85,10.78a1.87,1.87,0,0,1,1.58-2.09,1.81,1.81,0,0,1,2.08,1.56,1.87,1.87,0,0,1-1.6,2.09,1.79,1.79,0,0,1-2.06-1.56m1.19,10.86a1.88,1.88,0,0,1,1.72-2,1.78,1.78,0,0,1,2,1.67,1.82,1.82,0,0,1-1.7,2,1.85,1.85,0,0,1-2-1.68m2.49,12.71a1.9,1.9,0,0,1-1.92-1.8,1.87,1.87,0,1,1,1.92,1.8"/><path class="cls-3" d="M353.09,232.12c8.16-43.48-8.18-49-11.83-77.36-1.46-11.33-6.81-12.7-9.59-15.51s-.31-14.25-18-18.39c-13.45-3.14-20.09-30.73-61.64-34.16C193,81.8,122.27,137.32,113.56,181c-7.54,37.74,2.82,59.45,5.56,81s-4.64,26.17-2.09,29.52c3.87,5,13.19,0,30.29,10.09,14.39,8.5,27.78,27.55,61.32,32.42,58.61,8.54,133.91-45.72,144.45-102M241.42,315.61a29.25,29.25,0,0,1,.87-3.28c.93-2.73,3.23-4.82,5.45-6.27,2.91-2,7-4.39,10.6-4.86,2.17-.28,4,.63,5.15.6l.53,0a7.7,7.7,0,0,0,0,2.25,34.22,34.22,0,0,0,.22,4.43,139.84,139.84,0,0,1-22.77,7.16M238.57,97.7a6.39,6.39,0,0,0,1.16-2.47,2,2,0,0,0-.18-.88,63.39,63.39,0,0,1,7,.18,9.72,9.72,0,0,0-.88,1.41c-1.55,3.87.64,7.75,2,10.12.62,1.63,1,3.14,1.42,4,.16.24.27.42.35.57a23,23,0,0,0-7.18,11.83c0,4.63,1.33,9,2.65,13.3a1.54,1.54,0,0,0-.69,0,8,8,0,0,1-2.06.35,12.66,12.66,0,0,1-10.36-4.44c-3-3.33-5-8.45-6.28-12.8-2-5.83,1.48-12.67,6.2-16.09,2.68-2.17,5.55-3.26,6.88-5.09M198.1,312.77c.1-.07.19-.15.31-.23,2.86-2,8.32-7.2,12.59-9.75,4.89-2.91,8.62-2.69,13.25-2.39a13.68,13.68,0,0,0,3,.5c0,.23,0,.48.07.79.31,1.2.57,3.59,0,4.89s-1.83,1.57-3.28,1.89a22.66,22.66,0,0,1-7.62,1.19c-2.31-.18-3-1-4.16-1.1-.59-.09-.94-.11-.94-.11-.33,0-.63.4-.73,1.41s.1,1.49.42,1.52l1,.12c1.18.13,3.23.34,5.68.52,2.18.1,4.6,1,7.23.37,4-.64,5.66-5.61,5.21-8.05.17-1.3.58-2.46.71-3.34,5.45-.11,12.21-1.26,15.87-3.22,5.92-2.69,8.07-3.37,10.43-6.26a6.53,6.53,0,0,0,1.48-2.72c.37-1.07.15-2-.85-2a1.82,1.82,0,0,0-1.95,1.07c-.19-.07.13.91-1.11,2-1.48,2.33-6.3,5.33-12.32,7-5.78,1.69-11,1-17.41-.31-9-1.88-17.19,5.18-22.09,9.36-3.29,2.55-6.68,3.89-8.48,5.16l-.31.22c-20.42-8.36-34.47-20.76-52.29-21.68-13.46-.7-15.91-3.15-15.08-8.71.67-4.36,4.26-8.91,5.21-21.92.31-4.12-.51-11.35-1.59-20.07a30,30,0,0,1,6.6-4.3c5.5-4,20.2-1.92,30.66-6.56a12.36,12.36,0,0,1,.76,1.3c.77,1.35,2.33,4.4,2.28,6.68,0,2.54-1.16,3.79-2.58,5.1-1.4,1.49-6,3.93-9.07,4-3,.47-4-.31-5.49-.2l-1.23,0c-.42,0-.77.39-.78,1.2s.33,1.18.76,1.16l1.36,0a45.26,45.26,0,0,0,7.51-.61c2.78-.57,6.24-.8,8.89-3.09,4.1-3.07,2.92-9,1.69-11.83-.61-2-.77-3.87-1.34-4.87a1.19,1.19,0,0,0-.11-.23c9.95-5.57,15.63-11.46,24.43-13.84A12.33,12.33,0,0,1,203,213.9c2.86,1.63,6.91,4.64,11.38,5,9.4,1.42,17.27-5.2,21.07-10.18,7.56-10.85,8.29-15.15,10.06-21.53.86-3.32.91-5.35,1-5.34.25-1.81.1-3.31-.7-3.41s-1.39,1.3-1.67,3a43.67,43.67,0,0,1-1,5.39c-1.47,5.9-4.3,17.91-14.46,26-4.46,3.42-10.71,5-16.28,3-5-1.59-10.47-8.22-17.87-6.28-16.78,5.2-27.54,22.06-43.39,19.81-8.46.37-16,2-19.82,5-.58.38-1.08.72-1.52,1.07-1.07-8.62-2.28-18.39-2.88-27.9a11,11,0,0,1,4.58.12c2.66.76,3.68,2.3,5.11,4.28s5.25,7.41,9.13,8c3.45.86,4.62,1.11,6.38.94l1.46-.18c.48-.06.82-.49.64-1.29s-.59-1.11-1-1.06l-1.38.19a12,12,0,0,1-7.19-1c-2.48-1.28-3.49-4.47-5.31-7.22-2.36-4.31-8.51-5.47-12-4.76-.2,0-.37,0-.57,0-.54-10-.36-19.68,1.48-27.27.17-.65.38-1.3.55-2a19.23,19.23,0,0,0,5.46-.68c4.69-1,12.49-6.34,17.8-10,6.13-3.87,10.55-6.14,16.19-5.76,2.89.25,8.52.17,10.68,4s.09,9.83,1.52,13.76c2.24,7.83,5.14,9.85,8.77,11.75a16.9,16.9,0,0,0,3.32,1.08c1.11.3,2.1.15,2.21-.64s-.64-1.4-1.63-1.65a14.62,14.62,0,0,1-3-1c-3.42-1.14-8.65-6.47-8.39-14.42,0-2.42.76-5.67-.15-8.78.26.29.52.46.68.38l1.42-.62a9.29,9.29,0,0,1,4.84-1.08c1.88.09,2.88,1,4.25,1.61,1.36.82,4.67,2.52,5.79,4.5,1.28,1.75,1,2.68,1.47,3.63l.41.79c.13.26.58.33,1.32,0s1-.68.83-1l-.46-.91a26.25,26.25,0,0,0-2.9-4.78c-1.32-1.62-2.71-3.71-4.76-5a12.13,12.13,0,0,0-8.91-.56,16.69,16.69,0,0,0-3.78.37c-.59.25-.92.4-.92.4a.35.35,0,0,0-.17.23,6.05,6.05,0,0,0-.52-.88c-3.08-3.47-7.62-4.29-11.37-4.45a20.17,20.17,0,0,0-7.6,1.12,14.74,14.74,0,0,1-2.92-4.94,9,9,0,0,1,.65-6.3,29.94,29.94,0,0,1,4.51-8.07c1.12-1.23,2.72-2,3.09-3.35a2.48,2.48,0,0,0,0-1.63c-.15-.63-.92-.72-1.59-.29s-1.28.88-1.26.88.18,0-.24.86a35.12,35.12,0,0,1-3.7,5c-1.57,1.94-2.86,3.16-3.75,5.31-1.33,2.31-.37,7.49,1.09,9.72,1,1.86,1.3,2.86,1.81,3.72-6.51,3-11.7,8.48-16.76,11.07a26.24,26.24,0,0,1-11.31,3.47l-1.2.07c8.11-25.48,30.42-45.51,59-62.49,18-10.75,34.35-15.59,48.25-16.41a.4.4,0,0,0-.09.27,5,5,0,0,1-1.77,2.5c-1.81,1.87-7,5.57-9.78,9.36-3.13,4.24-4,8.39-3,12.8,1.18,4.59,5.8,12.7,10.58,15.77,4.58,3.13,6.7,3.29,9.56,3.31a9.39,9.39,0,0,0,2.36-.43,1.7,1.7,0,0,0,.66-.34c1.47,5.07,2.62,10.05,1.1,15.11-1.36,14.15-19.46,18.44-27.29,27.43-5.17,5.61-5,13-4.12,16.68a32.6,32.6,0,0,0,1.31,4.48c.5,1.5,1.53,2.44,2.28,2.14s1-1.7.5-3.07a31.65,31.65,0,0,1-1.86-7.91c-2-6.26,6-15.78,14.81-19.41,8.68-4.89,15.76-9.79,17.43-19.23,1.21-4.65.57-12.27-2.29-18.93-3-6.48-4.83-13.77-1.12-18.12,6.92-7.91,11-9.08,15.54-10.25a4.77,4.77,0,0,1,3.48.57c1,.6,1.69,1.26,2.41.94s.47-1.93-1.13-2.94a7.32,7.32,0,0,0-5.25-.89,31.75,31.75,0,0,0-9.52,4.49c-.17-.28-.45-.67-.76-1.16a18.48,18.48,0,0,1-2.84-5.35A8.94,8.94,0,0,1,250,94.9a53.46,53.46,0,0,1,11.79,2.86,128.87,128.87,0,0,1,14.65,6.42c-.06.06-.1.13-.15.18-2.74,3.08-5.51,11.5-5.52,17.44a99.05,99.05,0,0,0,.37,16.6c.47,5.65,3.51,17.7.12,23.62-3.94,5.29-7.3,3.67-10.27,4.08-1.73,0-2.76-.23-2.76-.19-.93-.09-1.73.23-1.87,1s.62,1.24,1.62,1.33a25.86,25.86,0,0,0,3.08.21c3.07.52,12.07-1.33,13.3-9.78,1.28-6.55.62-13.78,0-20.31-1-8.61-2.65-18.3-.1-25.52a21,21,0,0,1,4.7-7.35c14.3,7.86,21.09,15.81,26.63,20.67,7.39,6.47,12.35-.48,17.28,15.73a20.81,20.81,0,0,0,1.73,4.18C321.33,154.33,301,200,286,211.93c-15.78,12.53-29.71,22.28-44,35s-31.15,11-52.13,24.64-29.08,6.71-41.22,10.16-5.87,5.77,2.47,4.91,37-.71,46.33-7.06,30.36-13.35,37.94-18.49,21.09-12.67,33.64-21.78,31.36-28.79,41.13-42,18.43-28.23,20.68-46.67a8.71,8.71,0,0,0,.11-1.3c2.12-.06,3.79.33,4.23,6.91,1,14.27,7.11,31.79,8.78,46.7.23,2.24.39,4.37.49,6.45a75,75,0,0,0-6.44,4.54c-2.82,2.22-6.24,4.52-8.76,7.45-3.37,3.93-5,9.49-6.51,13.48-1,2.4-2.5,4.29-2.77,5.76-.19,1.06-.25,1.71-.27,1.69-.07.61.73,1.17,1.73,1.18s1.85-.28,1.89-.76a23.92,23.92,0,0,1,.51-2.75,35.22,35.22,0,0,1,3.13-8.86c1.69-3.09,3.39-4.74,5.22-7s5.92-7.54,9-9.79a18.79,18.79,0,0,1,3.3-1.93c.23,15.39-3.72,25.79-9.23,33.47-3.66,5.08-8.81,14.31-16.48,24,0-.36-.07-.73-.13-1.11-.39-1.67-.09-3.65-2.23-5.74-3.15-2-5.62.29-6.85,1.26-3.73,3.48-5.18,8.51-7.27,11.84-1.25,2-3.11,3.23-3.75,4.37-.46.83-.71,1.33-.71,1.33-.24.44.31,1.2,1.19,1.65s1.79.5,2,.07c0,0,.5-.94,1.34-2.41.93-1.69,2.76-5.4,4.4-7.81a35.11,35.11,0,0,1,5.3-6c1.07-.92,2.32-2.18,2.74-1.55,1.13,1,1.68,3.74,1.77,5.35,0,.5,0,1,0,1.38A100.62,100.62,0,0,1,295,292.29a177.84,177.84,0,0,1-28.16,15,10.17,10.17,0,0,1-.58-4.66c.34-2,2.14-3.44,3.72-4.7,2.06-1.73,4.69-4.34,7.34-5.14,1.62-.46,3.18.25,4,.09.63-.13,1-.19,1-.19.31,0,.46-.89.34-1.9s-.57-1.77-.92-1.7c0,0-.81.12-2.08.4a42.22,42.22,0,0,0-6.35,2.32c-2.29,1-4,1.49-5.76,2.95a8.11,8.11,0,0,0-2.51,3.43.45.45,0,0,0-.36-.14l-2.67.11a59,59,0,0,0-8.59,1.54c-3.14.82-5.36,1.34-7.86,2.91-3,1.59-5.61,7.65-6.07,10.91-.27,1.08-.51,1.91-.75,2.58-9.87,1.89-19.48,2.28-28,.38a97.27,97.27,0,0,1-12.7-3.76"/><path class="cls-3" d="M287.89,247c3.14-2.15,5.82-4.15,8.12-5.93.18.17.41.42.77.75,1,1.21,1.79,3.76-.64,6.64-2,2.53-5.32,4.36-8.11,6.56-3.6,3-7.39,7.21-9,11.42-1,2.49-.19,5.65,1,6.6.89.72,1.39,1.11,1.39,1.11.49.39,1.31,0,1.81-.88s.67-1.8.34-2.06a7.89,7.89,0,0,1-1.67-1.52c-1.39-.82-.68-3.79,1.68-6.08s4.46-3.48,6.76-5.35,7.11-6.67,8.88-10.49,1-6-.19-7.77c-.28-.31-.53-.55-.72-.75,5.23-4.12,8.5-6.8,11.91-7.17,13.3-1.43,26.75-34.66,18-43.91-13.3,28.88-26,39.23-44.52,52.76s-30,19.44-47.19,31.12-26.1,19.13-48.07,21.52c-18.26,2,5.79,9.38,14.12,6.6s26.81-18.23,42.58-25.12,30.44-19.72,42.7-28"/><path class="cls-3" d="M274.78,198.93c5.32-5.76,12.93-12,21.16-24.88s8.25-21.45,5.5-24.19c-5.25,15.12-23.06,34.66-32.64,44.78s-12.74-.88-18.85,10c-4.25,7.59,19.52.05,24.83-5.71"/><path class="cls-3" d="M160.89,263.49c6-.73,22.17,2,37.26-9.05s29-14.62,49.06-31.73c9.8-8.38-11,0-38.6,18.91-26,17.78-30,8.45-44.11,15s-24.88,13.53-23.38,16.94,13.79-9.39,19.76-10.11"/><path class="cls-3" d="M173.52,195.93c-6-.83-12.8,2.27-17.63,1.88-6-1.26-13.81-10.51-7.38-15.93,2.77-3,6.33-4,8.1-5.12l2.26-1.19a1.55,1.55,0,0,0,.72-2,1.46,1.46,0,0,0-2.06-.56,48.26,48.26,0,0,0-4.41,2.5c-2.65,1.68-10.32,7-8.94,14,2.42,6.46,5.09,9.27,10.91,11.44,6.52.68,15.67-5.37,21.78-2.48,5.88,1.91,6.77,4.48,5.58,5.92a5.83,5.83,0,0,1-1.47,1.52,1.38,1.38,0,0,0-.59,1.8c.37.72,1.27.66,2,.07a7.89,7.89,0,0,0,2.11-2.26c2.92-5.14-5-9.14-11-9.61"/><path class="cls-3" d="M213.73,117.16a25.81,25.81,0,0,1,1.26,2.28c.38.79,1,1.27,1.74,1s.79-1.17.37-2a23.79,23.79,0,0,0-1.37-2.57c-.92-1.89-6.77-10.9-14.06-5a35.74,35.74,0,0,0-11.39,15.49c-3.3,7.45-3.18,18.14-10,21-4,1.33-7.42-.81-9.44-1.36-1.57-.59-2.44-.94-2.44-.94a1.63,1.63,0,0,0-2.09.78,1.48,1.48,0,0,0,1,1.94,29.42,29.42,0,0,0,5.09,1.67c3.46,2.13,13.66-.75,15.2-7.2,2.61-5.85,3.68-9.73,5.58-14.45,1.4-4.91,6.8-15.29,12.76-17.13,5.76.53,6.07,4.45,7.82,6.56"/><path class="cls-3" d="M228.81,154.59c1-1.1,1.4-1.85,1.43-1.83.47-.63.52-1.37-.16-1.81a1.2,1.2,0,0,0-1.75.39,17.15,17.15,0,0,1-1.41,1.81,29.33,29.33,0,0,1-9.7,7.83c-5,2.76-8.31-1.15-7.12-6.36a29.88,29.88,0,0,1,2.16-9.63c1.36-2.58,4.08-6.8,1.52-9.61a56.81,56.81,0,0,0-5-7.15l-1.62-1.59a1.41,1.41,0,0,0-2,.08,1.45,1.45,0,0,0,0,2s1.19,1.13,3,3c1.88,2.27,7.39,6.37,3.41,9.93a25.8,25.8,0,0,0-4.57,12.51c-.15,2.06-.57,7,3.79,9.41,4.52,1.5,7.88-1.3,10.19-2.55,4.59-3.21,6-4.27,7.89-6.42"/><path class="cls-3" d="M283,138.95c1.91,3.2,3.94,5.76,7.95,6.28,5.11.41,9.06-6.68,9.9-10.27,1.16-3.82,1.7-5,1.95-7l.09-1.67c0-.54-.33-1-1.15-1s-1.19.42-1.21.93c0,0,0,.58-.09,1.61a25.47,25.47,0,0,1-2.16,8.62c-1.29,3.08-4.46,5.71-7.07,5.58-3.56,0-7.45-4.85-8.79-8.63-.89-2.37-.62-4.61-.89-5.92-.22-1-.34-1.52-.34-1.52-.12-.51-.88-.79-1.65-.64s-1.35.71-1.2,1.26l.71,3a42.33,42.33,0,0,0,4,9.4"/><path class="cls-3" d="M292.65,281.21c6.36-5.13,6.83-14.07,10.76-18.8,4.51-5,11.49-7.19,17-9.53,6.82-2.35,12.9-6.18,14.44-10.62a18.54,18.54,0,0,0,1.1-4.91c.09-1.7-.64-3-1.67-3s-1.9,1.21-2,2.58a12.88,12.88,0,0,1-2.66,7c-2.72,5-15.64,8.07-24.08,13-10.27,6.43-8.91,16.24-15.26,20.94-2.71,3.18-9.09,4.71-16,2.46-6.88-1.51-13.25-6.35-19.66-5.64-11.48,3.61-12.88,8.2-16.63,12.34-1.69,2.48-2.51,4-2.53,4-.78,1.38-.93,2.78,0,3.22s1.88-.44,2.63-1.75a45,45,0,0,1,2.48-4c2.73-3.48,9.72-14.94,20.26-10.66,8.4,3.2,21,12.05,31.75,3.3"/><path class="cls-3" d="M80.86,307.8a46.43,46.43,0,0,0,6.34.54h.33a17.53,17.53,0,0,0,5-.63A7.08,7.08,0,0,0,97,304.36c.85-1.6.92-3.65.19-6.09-.08-.28-.18-.57-.29-.86s-.22-.59-.35-.89l-.23-.55-2.08-.29-.3.77a7,7,0,0,1-2.32,3.09,9,9,0,0,1-1.66,1,14.89,14.89,0,0,1-2,.74,20,20,0,0,1-5.41.8,41.13,41.13,0,0,1-6.1-.38c-2.12-.29-4.29-.71-6.47-1.23q-2-.48-3.95-1,1.83-1,3.74-2,3.17-1.73,6.38-3.55t6.31-3.65q3.12-1.83,5.93-3.53l.4-.24.09-.46a8.57,8.57,0,0,0,.14-1.95,8,8,0,0,0-.31-1.93A3.65,3.65,0,0,0,87.32,280a2.61,2.61,0,0,0-2.24-.27,5.46,5.46,0,0,0-1.24.59l-1.54.88c-.54.3-1.08.59-1.63.87s-1.08.52-1.61.75a14.72,14.72,0,0,1-1.5.55,9.85,9.85,0,0,1-1.05.25,7.69,7.69,0,0,1-1.08.12,16.59,16.59,0,0,1-2.16-.09q-1.35-.12-2.94-.36T67,282.74q-1.73-.32-3.38-.67-1.41-.3-2.66-.59l2.1-1q2.37-1.18,4.65-2.37t4.39-2.36q2.09-1.17,3.9-2.2t3.25-1.93q1.44-.89,2.4-1.53a17.57,17.57,0,0,0,2.22-1.72,7.82,7.82,0,0,0,1.37-1.62,4.07,4.07,0,0,0,.6-1.72,4.35,4.35,0,0,0-.17-1.63,17.16,17.16,0,0,0-1.76-3.5c-.92-1.52-2.12-3.28-3.56-5.24l-.54-.74-3.41,1.84.53.93q.66,1.15,1.09,2a8.32,8.32,0,0,1,.6,1.45,2.38,2.38,0,0,1,.11.86,1.53,1.53,0,0,1-.28.69,5.62,5.62,0,0,1-1.06,1.12,25.93,25.93,0,0,1-2.19,1.61q-1.21.81-3,1.86t-3.9,2.27q-2.13,1.21-4.52,2.49t-4.88,2.56Q56.45,274.85,54,276t-4.7,2.21l-.75.34.76,4.18.58.2q1.57.53,3.47,1.09t4,1.09q2.05.53,4.21,1c1.44.34,2.87.66,4.27.95s2.77.55,4.09.79l.67.12c-2.25,1.25-4.5,2.48-6.74,3.65-3.13,1.65-6.21,3.17-9.13,4.54l-.73.34.74,4.12.58.2q2.28.8,5.3,1.79t6.42,2c2.26.64,4.59,1.25,6.94,1.8S78.65,307.47,80.86,307.8Z"/><path class="cls-3" d="M92.39,346.81c1.27-.85,2.6-1.67,3.94-2.45s2.68-1.54,4-2.25L104,340q1.8-1,3.24-2a17.42,17.42,0,0,0,3.59-3.09,9.62,9.62,0,0,0,2-3.7,8.59,8.59,0,0,0,0-4.26,14.15,14.15,0,0,0-2.1-4.58,18.56,18.56,0,0,0-2.14-2.61,23.53,23.53,0,0,0-2.77-2.43,23.89,23.89,0,0,0-3.19-2A15.44,15.44,0,0,0,99.27,314a10.58,10.58,0,0,0-3.44-.29,6.9,6.9,0,0,0-3.27,1.14,5.22,5.22,0,0,0-1.51,1.49,4.65,4.65,0,0,0-.63,3.77,5.78,5.78,0,0,0,.82,1.84,7.71,7.71,0,0,0,2.58,2.39l.37.22,1.25-.31.19-.53a8.57,8.57,0,0,1,1.15-2.17,6.27,6.27,0,0,1,1.55-1.5,4.47,4.47,0,0,1,1.48-.65,2.82,2.82,0,0,1,1.42.05,4.66,4.66,0,0,1,1.63.92,9.7,9.7,0,0,1,1.81,2.12,7.36,7.36,0,0,1,1,2.21,6.17,6.17,0,0,1,.15,2.4,6.06,6.06,0,0,1-.92,2.39,7.53,7.53,0,0,1-2.25,2.18h0c-1,.66-1.91,1.23-2.77,1.71q-.93.52-1.91,1a43.31,43.31,0,0,0-2.88-3.71A34.3,34.3,0,0,0,91.24,327a26.07,26.07,0,0,0-4.11-2.86,15.51,15.51,0,0,0-4.35-1.65,12.07,12.07,0,0,0-4.41-.1,10.94,10.94,0,0,0-4.29,1.74,9.8,9.8,0,0,0-2.64,2.53,8.71,8.71,0,0,0-1.4,3.14,8.52,8.52,0,0,0,0,3.44,9.33,9.33,0,0,0,1.43,3.42,9.76,9.76,0,0,0,3.52,3.2,17.22,17.22,0,0,0,4.59,1.67,25.26,25.26,0,0,0,5.16.56h1.14a12.43,12.43,0,0,0-2.2,2.15A8.77,8.77,0,0,0,82,347.47a7.65,7.65,0,0,0-.06,3.42,9.24,9.24,0,0,0,1.39,3.25,11.56,11.56,0,0,0,3.42,3.36,13.53,13.53,0,0,0,4.61,1.81l.85.17,1.22-3-.9-.43a7.8,7.8,0,0,1-3.23-2.5,3.21,3.21,0,0,1-.33-3.09A8.38,8.38,0,0,1,92.39,346.81Zm-9.94-9.72A9.92,9.92,0,0,1,80.12,336a4.91,4.91,0,0,1-1.46-1.38,2.63,2.63,0,0,1-.47-1.2,2.37,2.37,0,0,1,.17-1.12,3.73,3.73,0,0,1,.75-1.14,7.21,7.21,0,0,1,1.28-1.08A6.72,6.72,0,0,1,82.91,329a6.21,6.21,0,0,1,2.43.05,8.15,8.15,0,0,1,2.43,1A16.12,16.12,0,0,1,90.23,332a25.43,25.43,0,0,1,2.37,2.52q.78.95,1.51,1.94a15.34,15.34,0,0,1-2.06.72,18.46,18.46,0,0,1-6.66.55A14.55,14.55,0,0,1,82.45,337.09Z"/><path class="cls-3" d="M108.27,367.73q.77-1,2-2.25t3-3.09c1.91-1.89,4-3.85,6.1-5.82s4.38-4,6.67-6,4.65-4,7.06-6.06,4.83-4,7.25-6,4.84-3.93,7.23-5.84,4.75-3.77,7.06-5.57l.59-.46-.24-.71a8.46,8.46,0,0,0-1.94-3.27,7.85,7.85,0,0,0-1.18-1,5.53,5.53,0,0,0-1.38-.69,3.49,3.49,0,0,0-1.59-.15,2.87,2.87,0,0,0-1.55.74q-2,1.77-4.69,4.1l-5.62,5-6.16,5.45q-3.18,2.83-6.29,5.62l-6,5.41-5.33,4.83q-2.44,2.22-4.25,3.91t-2.79,2.65c-1.73,1.72-3.2,3.23-4.37,4.49a21,21,0,0,0-2.7,3.48,5.47,5.47,0,0,0-.91,3.09,4.24,4.24,0,0,0,1.34,2.73,11,11,0,0,0,2.3,1.7,25.33,25.33,0,0,0,3,1.47,31.14,31.14,0,0,0,3.18,1.13,17.47,17.47,0,0,0,2.89.62l.75.08,1.41-3-1.06-.4a16.67,16.67,0,0,1-2.61-1.24,9.55,9.55,0,0,1-1.92-1.46,3.25,3.25,0,0,1-.54-.68.71.71,0,0,1-.08-.42,2.28,2.28,0,0,1,.3-.84A9.9,9.9,0,0,1,108.27,367.73Z"/><path class="cls-3" d="M162.88,370.93a8.45,8.45,0,0,0-2.33-2.22,10.12,10.12,0,0,0-4.85-1.46,17.34,17.34,0,0,0-6.47,1,39.89,39.89,0,0,0-8,3.87q-1.58,1-3.29,2.18l.45-.59q1.28-1.69,2.39-3.19l2-2.66,1.4-1.93c.38-.53.62-.87.72-1a5.3,5.3,0,0,0,1.09-3.77,4.06,4.06,0,0,0-1.94-2.69,10.65,10.65,0,0,0-1.71-.83q-1.05-.42-2.49-.87c-.94-.3-2-.6-3.13-.91s-2.35-.62-3.61-.91l-.89-.21-1.4,3.66,1.06.34q1.59.51,2.77,1a10.74,10.74,0,0,1,1.81.88,2.39,2.39,0,0,1,.61.53.7.7,0,0,1,.14.39,1.82,1.82,0,0,1-.15.77,7.73,7.73,0,0,1-.72,1.38c-.41.64-1,1.52-1.73,2.62S133,368.6,132,370l-3.11,4.47q-1.67,2.38-3.39,4.79T122.08,384q-1.69,2.31-3.18,4.25l-.65.85.86.63,6.17,3.05.51-.71a49.17,49.17,0,0,1,4.83-5.73,58.54,58.54,0,0,1,5.51-5,52.44,52.44,0,0,1,5.65-3.91,34.22,34.22,0,0,1,5.26-2.6,16.48,16.48,0,0,1,4.33-1.08,4.29,4.29,0,0,1,2.66.47,2.59,2.59,0,0,1,1.28,2,6.18,6.18,0,0,1-1.28,3.66q-.59.92-1.71,2.37l-2.57,3.33q-1.43,1.84-3,3.91c-1,1.4-2,2.79-2.86,4.15q-1.09,1.7-1.93,3.23a14.32,14.32,0,0,0-1.28,3,5.67,5.67,0,0,0-.09,2.89,4.1,4.1,0,0,0,1.89,2.42,12.12,12.12,0,0,0,2.74,1.25,24.83,24.83,0,0,0,3.31.83,32.21,32.21,0,0,0,3.37.42c.53,0,1,.05,1.48.05a13.7,13.7,0,0,0,1.49-.07l.75-.08.72-3.23-1.12-.16a16.72,16.72,0,0,1-2.82-.65,10.1,10.1,0,0,1-2.29-1.07,3,3,0,0,1-.87-.78,1.05,1.05,0,0,1-.14-.71,5.14,5.14,0,0,1,.51-1.62,25.21,25.21,0,0,1,1.55-2.71c.4-.63.91-1.36,1.5-2.18s1.25-1.71,1.94-2.63,1.39-1.84,2.12-2.77,1.43-1.84,2.07-2.69,1.23-1.63,1.75-2.32,1-1.31,1.23-1.75a15.45,15.45,0,0,0,2-4.43,9.79,9.79,0,0,0,.27-3.87A7.32,7.32,0,0,0,162.88,370.93Z"/><path class="cls-3" d="M203.61,408.35q.58-2.12,1.33-4.6t1.62-5.07q.87-2.59,1.76-5.17c.6-1.71,1.18-3.33,1.76-4.85l.39-1-1-.35-6.86-1.09-.28.83a63.67,63.67,0,0,1-4.92,11,60.07,60.07,0,0,1-6,8.71,23.78,23.78,0,0,1-5.74,5.25,5.49,5.49,0,0,1-4.12,1,2.71,2.71,0,0,1-1.91-1.58,6.1,6.1,0,0,1,.11-3.91c.17-.64.43-1.42.76-2.36s.72-2,1.15-3.14l1.36-3.63q.73-1.92,1.43-3.87t1.34-3.85c.43-1.28.8-2.49,1.11-3.63h0a14.61,14.61,0,0,0,.43-2.18,5.66,5.66,0,0,0-.1-2,3.56,3.56,0,0,0-.94-1.68,4.12,4.12,0,0,0-1.83-1,9.62,9.62,0,0,0-1.64-.24c-.68-.06-1.53-.1-2.54-.12s-2.13,0-3.41,0-2.66.11-4.16.22l-.92.07-.24,3.92h1.13c1,0,2,0,2.92.1a12.22,12.22,0,0,1,2.07.32,2.06,2.06,0,0,1,.82.37.63.63,0,0,1,.2.38,3.13,3.13,0,0,1,0,1q-.14.77-.42,1.81c-.48,1.75-1,3.54-1.66,5.33s-1.26,3.53-1.88,5.21-1.22,3.27-1.76,4.76-1,2.87-1.32,4.05a15.67,15.67,0,0,0-.64,5,9.34,9.34,0,0,0,.94,3.77,7.23,7.23,0,0,0,2.2,2.59,9.09,9.09,0,0,0,2.92,1.38,9.88,9.88,0,0,0,4.77,0,15.49,15.49,0,0,0,5.53-2.72,36.21,36.21,0,0,0,6.07-5.86q1-1.14,2-2.48-.34,1.08-.64,2.15a22.35,22.35,0,0,0-.92,6,11.81,11.81,0,0,0,.78,4.41,7.27,7.27,0,0,0,2.19,3,8.42,8.42,0,0,0,3,1.52,11,11,0,0,0,2.58.38h.33a12.59,12.59,0,0,0,2.21-.19,14.18,14.18,0,0,0,2.42-.66,13.39,13.39,0,0,0,2.19-1l.75-.45L209.1,421l-1,.32-.79.24a6.35,6.35,0,0,1-.88.18,7.32,7.32,0,0,1-1,.06,3.64,3.64,0,0,1-.94-.12,2.89,2.89,0,0,1-1.29-.8,3.91,3.91,0,0,1-.86-2,14.86,14.86,0,0,1-.1-4.07A38.17,38.17,0,0,1,203.61,408.35Z"/><path class="cls-3" d="M242.69,421l-.52-.55-.69.31a22.74,22.74,0,0,1-3.75,1.39,10.63,10.63,0,0,1-2.81.36,4.87,4.87,0,0,1-2.6-.71,4.32,4.32,0,0,1-1.53-1.91,11.09,11.09,0,0,1-.81-3.36,38.06,38.06,0,0,1-.13-4.77q0-1.45.15-3.41t.29-4.25q.18-2.29.45-4.88.22-2.1.5-4.29,1.88.2,3.52.41c1.4.18,2.71.29,3.88.33a9.32,9.32,0,0,0,3.07-.3,2.43,2.43,0,0,0,1.71-2.39,4.06,4.06,0,0,0-.08-.91c0-.26-.11-.56-.2-.88l-.24-.92-.94.15a19.93,19.93,0,0,1-3.63.15l-1.34,0-1.77-.08-2.13-.11-1.21-.07c.41-3,.87-6,1.4-9.06.58-3.42,1.29-6.76,2.09-9.93l.19-.76-.67-.4a6.51,6.51,0,0,0-1.5-.66,7.1,7.1,0,0,0-1.79-.27,6.9,6.9,0,0,0-1.25.09,4.34,4.34,0,0,0-1.33.43,3.84,3.84,0,0,0-1.15.93,3.6,3.6,0,0,0-.73,1.55c-.52,2.45-1.05,5.31-1.6,8.51-.5,2.95-1,6.06-1.44,9.26-.75.05-1.47.13-2.13.24a13.34,13.34,0,0,0-2.46.63,6,6,0,0,0-1.8,1,2.4,2.4,0,0,0-.93,1.77,1.83,1.83,0,0,0,.17.85l.36.75.81-.18a17.85,17.85,0,0,1,2.8-.34q1.19-.06,2.51-.06-.24,1.89-.46,3.83-.28,2.55-.49,5.1t-.36,5q-.15,2.49-.22,4.84a34.84,34.84,0,0,0,.39,7.11,14,14,0,0,0,1.62,4.73,6.77,6.77,0,0,0,2.84,2.71,8.8,8.8,0,0,0,3.54.83h.35a13.89,13.89,0,0,0,2.67-.28,22.13,22.13,0,0,0,3.21-.9,31.45,31.45,0,0,0,3.33-1.42c1.13-.56,2.26-1.19,3.35-1.86l.54-.33,0-.64A3.76,3.76,0,0,0,242.69,421Z"/><path class="cls-3" d="M313.53,404.58a16.51,16.51,0,0,1-2.27,1.79A10,10,0,0,1,309,407.5a3,3,0,0,1-1.15.19,1,1,0,0,1-.65-.33,5.15,5.15,0,0,1-.94-1.41,24.51,24.51,0,0,1-1.14-2.9q-.35-1-.76-2.53t-.84-3.19q-.43-1.68-.85-3.43t-.82-3.35l-.74-2.88c-.23-.88-.43-1.57-.6-2.08a14.89,14.89,0,0,0-2.14-4.24,9.51,9.51,0,0,0-2.84-2.57,7.58,7.58,0,0,0-3.23-1,8.26,8.26,0,0,0-3.21.41,10.11,10.11,0,0,0-4.17,2.87,17.32,17.32,0,0,0-3.25,5.66,39.74,39.74,0,0,0-2,8.61q-.28,2.12-.41,4.56L276.43,389q-.7-2.74-1.42-5.62t-1.46-6q-.75-3.15-1.59-6.81t-1.8-7.94q-1-4.29-2.07-9.43l-.16-.73-.74-.09a8.52,8.52,0,0,0-3.79.3,8.43,8.43,0,0,0-1.46.65,5.53,5.53,0,0,0-1.24.94,3.47,3.47,0,0,0-.83,1.37,2.89,2.89,0,0,0,0,1.73L269.53,392q1.24,4.45,2.43,8.75l6.46,23.19,1-.27,6.34-2.93-.24-.85a50.16,50.16,0,0,1-1.45-7.36,59,59,0,0,1-.41-7.4,51.62,51.62,0,0,1,.5-6.85,35,35,0,0,1,1.28-5.74,16.2,16.2,0,0,1,1.88-4,4.31,4.31,0,0,1,2-1.78,2.51,2.51,0,0,1,2.36.28,6,6,0,0,1,2,3.16q.36,1.09.81,2.92l1,4.17q.56,2.28,1.22,4.75c.43,1.63.91,3.24,1.43,4.79q.64,1.91,1.31,3.53a14.19,14.19,0,0,0,1.56,2.89,5.59,5.59,0,0,0,2.19,1.89,4.08,4.08,0,0,0,3.08,0,12.21,12.21,0,0,0,2.69-1.36,24.78,24.78,0,0,0,2.72-2.06,31.77,31.77,0,0,0,2.44-2.36A17.15,17.15,0,0,0,316,407l.41-.64-2.07-2.58Z"/><path class="cls-3" d="M345.76,371.43a27.75,27.75,0,0,0-2.63-4.83,21.31,21.31,0,0,0-4.29-4.62,17.5,17.5,0,0,0-5.39-3,14.39,14.39,0,0,0-6-.67,13,13,0,0,0-6.06,2.32,16.22,16.22,0,0,0-4.2,4.11,17.6,17.6,0,0,0-2.4,5,20.33,20.33,0,0,0-.83,5.47,26.15,26.15,0,0,0,.53,5.57,28.3,28.3,0,0,0,1.67,5.36,27.72,27.72,0,0,0,2.63,4.83,21.29,21.29,0,0,0,4.29,4.61,17.61,17.61,0,0,0,5.38,3,14.14,14.14,0,0,0,4.54.75q.72,0,1.45-.07A13,13,0,0,0,340.5,397a16.16,16.16,0,0,0,4.2-4.11,17.59,17.59,0,0,0,2.41-5,20.16,20.16,0,0,0,.83-5.47,26.32,26.32,0,0,0-.51-5.57A27.9,27.9,0,0,0,345.76,371.43Zm-3.55,14.34a7.18,7.18,0,0,1-.72,2.76,5.5,5.5,0,0,1-1.91,2.12,6.78,6.78,0,0,1-2.55,1.1,7.85,7.85,0,0,1-2.71,0,10,10,0,0,1-2.77-.88,16.41,16.41,0,0,1-2.74-1.67A19.09,19.09,0,0,1,326.3,387a22.69,22.69,0,0,1-2.12-2.65h0c-.53-.78-1.1-1.7-1.67-2.73a28.06,28.06,0,0,1-1.51-3.2,22.64,22.64,0,0,1-1.05-3.39,11.22,11.22,0,0,1-.28-3.19,7.13,7.13,0,0,1,.72-2.75A5.62,5.62,0,0,1,322.3,367a6.85,6.85,0,0,1,2.55-1.1,7.89,7.89,0,0,1,1.51-.14,8,8,0,0,1,1.2.09,9.71,9.71,0,0,1,2.75.87,16.88,16.88,0,0,1,2.74,1.67,18.86,18.86,0,0,1,2.49,2.24,23.57,23.57,0,0,1,2.13,2.66c.55.8,1.1,1.7,1.68,2.74a28.53,28.53,0,0,1,1.52,3.2,23.26,23.26,0,0,1,1.06,3.39A11.37,11.37,0,0,1,342.2,385.77Z"/><path class="cls-3" d="M393.44,338.1l-3.32-.25-.12,1c0,.24-.06.51-.11.81a7.06,7.06,0,0,1-.21.88,7.49,7.49,0,0,1-.36.95,3.4,3.4,0,0,1-.49.76,2.85,2.85,0,0,1-1.27.84,3.91,3.91,0,0,1-2.14,0,14.93,14.93,0,0,1-3.74-1.61,38.22,38.22,0,0,1-5.4-3.91q-1.68-1.4-3.62-3.13t-3.93-3.59q-2-1.87-4-3.76c-1.31-1.26-2.53-2.47-3.68-3.62l-.76-.77-.75.78-3.86,5.78.63.6a63.75,63.75,0,0,1,8,9.08,59.85,59.85,0,0,1,5.42,9.06,23.68,23.68,0,0,1,2.37,7.41,5.5,5.5,0,0,1-.83,4.15,2.6,2.6,0,0,1-2.24,1.08,6.09,6.09,0,0,1-3.5-1.73q-.76-.64-1.82-1.67t-2.38-2.35l-2.73-2.75q-1.45-1.46-2.92-2.91t-2.94-2.83q-1.47-1.39-2.84-2.52a14.64,14.64,0,0,0-1.8-1.3,5.74,5.74,0,0,0-1.85-.74,3.53,3.53,0,0,0-1.93.15,4.09,4.09,0,0,0-1.66,1.26,9.92,9.92,0,0,0-.9,1.38q-.5.9-1.17,2.26t-1.39,3.11q-.75,1.76-1.54,3.87l-.32.86,3.47,1.86.46-1c.42-.94.86-1.81,1.3-2.61a12.77,12.77,0,0,1,1.15-1.75,2,2,0,0,1,.68-.59.63.63,0,0,1,.43,0,3,3,0,0,1,.92.46q.64.44,1.47,1.13c1.39,1.16,2.78,2.41,4.15,3.74s2.69,2.62,4,3.89l3.59,3.59c1.14,1.14,2.19,2.11,3.13,2.89a15.77,15.77,0,0,0,4.24,2.65,9.63,9.63,0,0,0,3.48.72h.34a7.21,7.21,0,0,0,3.27-.92,9.06,9.06,0,0,0,2.48-2.07,9.85,9.85,0,0,0,2-4.34,15.45,15.45,0,0,0-.16-6.17,36.21,36.21,0,0,0-2.78-8q-.63-1.35-1.44-2.82.83.77,1.68,1.47a22.54,22.54,0,0,0,5.07,3.34,11.88,11.88,0,0,0,4.34,1.13,7.16,7.16,0,0,0,3.62-.75,8.43,8.43,0,0,0,2.63-2.1,11.15,11.15,0,0,0,1.42-2.18,12.53,12.53,0,0,0,.88-2.39,14.24,14.24,0,0,0,.41-2.48,13.34,13.34,0,0,0,0-2.42Z"/><path class="cls-3" d="M406.06,306a10.39,10.39,0,0,0-4.14-3.42,8.61,8.61,0,0,0-4.4-.91,11.78,11.78,0,0,0-4,1.06,19.91,19.91,0,0,0-3.7,2.25c-1.16.88-2.29,1.78-3.42,2.69s-2,1.57-2.9,2.29a17.76,17.76,0,0,1-2.65,1.7,7.49,7.49,0,0,1-2.37.79,3.38,3.38,0,0,1-2-.32,3.57,3.57,0,0,1-1.31-1.08,4.76,4.76,0,0,1-.81-1.77,6.7,6.7,0,0,1-.1-2.37,9.1,9.1,0,0,1,.87-2.83,8.65,8.65,0,0,1,1-1.59,5.54,5.54,0,0,1,1.26-1.2,3.64,3.64,0,0,1,1.41-.57,2.42,2.42,0,0,1,1.42.22,5.07,5.07,0,0,1,.9.57,8,8,0,0,1,1,1l.25.29,1.21.19.38-.43a9.3,9.3,0,0,0,1.44-2.15,5.41,5.41,0,0,0,.54-2.41,5,5,0,0,0-.46-2,4.77,4.77,0,0,0-1.11-1.51,5.58,5.58,0,0,0-1.32-.91,6,6,0,0,0-3.45-.56,8.11,8.11,0,0,0-3.25,1.22,12,12,0,0,0-2.81,2.55,17.59,17.59,0,0,0-2.21,3.53,20.37,20.37,0,0,0-1.21,3.25,19.12,19.12,0,0,0-.63,3.53,17.38,17.38,0,0,0,.07,3.56,13.11,13.11,0,0,0,.9,3.4,10.6,10.6,0,0,0,1.88,3,9.55,9.55,0,0,0,3,2.21,9.74,9.74,0,0,0,6.33.81,12.8,12.8,0,0,0,2.87-1,22.18,22.18,0,0,0,2.66-1.52c.86-.56,1.7-1.18,2.51-1.84l2.34-1.9q1.33-1.06,2.58-2a13.82,13.82,0,0,1,2.32-1.47,6.32,6.32,0,0,1,2.09-.64,3.35,3.35,0,0,1,1.86.35,3.6,3.6,0,0,1,1.46,1.21,4.48,4.48,0,0,1,.73,1.8,6.41,6.41,0,0,1,0,2.2,8.5,8.5,0,0,1-.73,2.33,10,10,0,0,1-1.55,2.31,7.94,7.94,0,0,1-2.12,1.71,6.53,6.53,0,0,1-5.61.34l-.39-.14-1,.43-.17.38a9,9,0,0,0-.61,1.91,6.51,6.51,0,0,0-.09,2,4.5,4.5,0,0,0,.7,1.95,4.24,4.24,0,0,0,1.77,1.48,5.38,5.38,0,0,0,2.35.55h.3a7.33,7.33,0,0,0,2.57-.63,11.29,11.29,0,0,0,2.39-1.46,18,18,0,0,0,2.15-2,20.42,20.42,0,0,0,1.87-2.4,21.74,21.74,0,0,0,1.47-2.57A20,20,0,0,0,408,316a15.63,15.63,0,0,0,0-5.32A12,12,0,0,0,406.06,306Z"/><path class="cls-3" d="M420.12,273.73a20.13,20.13,0,0,0-1.7-4.13,22.31,22.31,0,0,0-2.79-4,1.4,1.4,0,0,0-.77-.49,1.62,1.62,0,0,0-1.08.14,3.55,3.55,0,0,0-.63.39,4.45,4.45,0,0,0-.52.47c-.15.16-.26.29-.35.39l-.49.59.42.65a16.32,16.32,0,0,1,2.34,5.28,10.09,10.09,0,0,1,0,4.41,7.66,7.66,0,0,1-1.78,3.44,9.75,9.75,0,0,1-3.37,2.4,13.85,13.85,0,0,1-4.7,1.08,19.08,19.08,0,0,1-5.22-.42,77.5,77.5,0,0,0,.68-8,34.75,34.75,0,0,0-.54-7.61,14.65,14.65,0,0,0-2.32-5.75,7.77,7.77,0,0,0-4.67-3.12,7.64,7.64,0,0,0-3.82,0,8.28,8.28,0,0,0-3.18,1.68,10.71,10.71,0,0,0-2.36,2.88,13.75,13.75,0,0,0-1.44,3.69,16.88,16.88,0,0,0-.38,5.8,18.37,18.37,0,0,0,1.44,5.34,20.58,20.58,0,0,0,2.91,4.72,25.17,25.17,0,0,0,4,3.94,27,27,0,0,0,4.88,3,26.61,26.61,0,0,0,5.42,1.92,20.56,20.56,0,0,0,4.71.56,18.47,18.47,0,0,0,2-.11,17.34,17.34,0,0,0,6-1.74,14.64,14.64,0,0,0,4.69-3.78,13.74,13.74,0,0,0,2.73-5.63,15.7,15.7,0,0,0,.4-3.91A16.44,16.44,0,0,0,420.12,273.73Zm-24.35,3.8a42.56,42.56,0,0,1-.43,5.14c-.53-.22-1.07-.46-1.6-.72a21.52,21.52,0,0,1-2.68-1.55,16.21,16.21,0,0,1-2.31-1.9,10.17,10.17,0,0,1-1.69-2.16,7.36,7.36,0,0,1-.88-2.4,6.51,6.51,0,0,1,.11-2.65,4.06,4.06,0,0,1,.72-1.55,4.14,4.14,0,0,1,1.24-1.09,4.42,4.42,0,0,1,1.6-.53,4.79,4.79,0,0,1,.64,0,5.23,5.23,0,0,1,1.21.15h0a4,4,0,0,1,2.25,1.39,7.5,7.5,0,0,1,1.39,3.07A20.21,20.21,0,0,1,395.78,277.53Z"/></svg>