<?xml version="1.0" encoding="utf-8"?>
<!-- Generator: Adobe Illustrator 21.1.0, SVG Export Plug-In . SVG Version: 6.00 Build 0)  -->
<svg version="1.1" id="Layer_1" xmlns="http://www.w3.org/2000/svg" xmlns:xlink="http://www.w3.org/1999/xlink" x="0px" y="0px"
	 viewBox="0 0 200 200" style="enable-background:new 0 0 200 200;" xml:space="preserve">
<style type="text/css">
	.st0{display:none;}
	.st1{display:inline;fill:#C18B52;}
	.st2{fill:#C18B52;}
	.st3{display:none;fill:#C18B52;}
</style>
<g class="st0">
	<path class="st1" d="M115,31.7c10.8-7.2,21.3-16.3,33.5-21.8c17.1-7.7,31.6,3.1,25.3,19.6c-20.5,53.8-7.9,109.3-11.6,163.8
		c-0.1,1.9-0.2,3.7-0.3,6.7c-43.8,0-87.4,0-132.7,0c-0.2-5.2-0.6-10.6-0.7-16.1c-1.4-47.6-2.8-95.2-3.8-142.8
		c-0.1-4.8,2.6-9.8,4.2-14.6c2.1-6.5,4.3-13,7.2-21.8c8.6-1.4,19.5-3.2,29-4.7c8.5,11.9,16.1,22.6,23.8,33.3
		c0.7-0.3,1.4-0.6,2.1-0.9c-2.6-9.2-5.3-18.4-7.8-27.4c15.5,1.2,28.9,2.3,43.8,3.5C123,16.2,118.7,24.5,115,31.7z M132.6,195.8
		c0-44.1,0-86.8,0-129.9c-33.7,0-66.4,0-99.6,0c0,43.7,0,86.4,0,129.9C66.3,195.8,98.7,195.8,132.6,195.8z M156.7,185.4
		c0-40.9,0-80.2,0-119.3c-6.9,0-12.8,0-18.6,0c0,40.5,0,79.8,0,120.9c4.4-3.8,7.3-6.3,10.1-8.7C151.3,180.9,153.7,182.8,156.7,185.4
		z M142.3,36.7c-0.7,0.3-1.3,0.7-2,1c-2.7-3.9-5.4-7.8-8.1-11.6c-16.7,5.1-2.4,16.3-5.1,25.6c-3.3-4.9-5.9-8.5-9.5-13.9
		c-4.7,7.7-8.6,14-13.6,22.1c13,0,22.8,0,32.7,0c25.5,0,25.9,0.1,31.8-25.1c1.4-6.2,1.3-16.8-2.1-18.9c-5-3.1-13.7-0.8-20.7,0.1
		c-2.9,0.4-5.6,3.2-8.4,4.9C139.1,26.5,140.7,31.6,142.3,36.7z M29,40.7c1.4,7.4,2.5,13.1,3.4,18.1c18.8,0,36,0,54,0
		c-1.5-8.8-2.7-16.6-4.3-25.8C64.5,35.6,48,38,29,40.7z M88.6,58.1c2.1,0.7,4.3,1.5,6.4,2.2c18-10.7,10.4-35,24.4-45.9
		c-10.6-1.1-20.2-2.1-31-3.2c2.6,5.9,5.7,12.9,7.2,16.2C92.8,39.7,90.7,48.9,88.6,58.1z M78.7,28.9C70.5,7.8,55.5,14.7,43.2,17.6
		C38,18.9,34.4,27,30.1,31.9c1,1.1,1.9,2.3,2.9,3.4C48,33.3,63.1,31.1,78.7,28.9z"/>
	<path class="st1" d="M111.6,110.1c-2.5-5.7-5.6-11.2-7.2-17.1c-1-3.6-1.1-9.3,1.1-11.3c2.2-2.1,8.7-2.7,11.2-0.9
		c2.4,1.6,3.1,7.4,2.6,11c-1.1,8-4.5,15.7-5,23.7c-1.2,20.3-12.5,32.6-31.4,32.6c-18.7,0-30.1-12.3-31.1-32.8
		c-0.4-8.3-2.6-16.6-3-24.9c-0.1-3.6,1.5-9.1,4-10.3c2.9-1.4,9.1-0.3,11.1,2.1c1.9,2.2,1.6,8.4-0.2,11.3
		c-8.2,12.6-9.9,30.1-2.2,39.8c7.3,9.3,16.9,13.4,28.8,9.9C103.8,139,109.4,129.7,111.6,110.1z"/>
</g>
<g>
	<path class="st2" d="M100.7,0c54.8,0.4,100,46.1,99.3,100.2c-0.7,55.2-45.3,99.7-100,99.7C44.7,200-0.8,154,0,98.8
		C0.8,43.7,45.7-0.4,100.7,0z M99.5,6.2c-51,0.3-93.7,43.3-93.3,94.1c0.3,50.9,43.6,93.7,94.1,93.3c50.9-0.4,94-43.9,93.4-94.1
		C193.1,48.1,150.5,5.9,99.5,6.2z"/>
	<path class="st2" d="M46.5,97.6c5.4-0.3,10.8-0.9,16.2-0.9c24.1-0.2,33.8-9.9,33.9-34c0.1-13.3,0.4-26.6,0.7-39.9
		c0-0.8,1.2-1.5,5.3-6.3c0,19.4-0.9,34.8,0.4,50c0.6,6.9,4.3,14.4,8.7,19.9c6.6,8.3,8.7,16.1,2,24.4c-6.6,8.2-17.7,11.1-23.6,3.1
		c-9.6-13-21.6-10.9-34-11.2c-3.1-0.1-6.3-0.5-9.4-0.8C46.8,100.5,46.6,99,46.5,97.6z M100.3,116.1c5.1-7.7,10.6-12.4,10.2-16.4
		c-0.4-3.9-6.9-10-10.7-9.9c-3.6,0-9.8,6.5-10.1,10.5C89.4,104.2,95,108.6,100.3,116.1z"/>
</g>
<path class="st3" d="M150.1,192c-33.8,0-65.8,0-100.3,0c0-16.5-0.6-33,0.2-49.4c0.5-9.9-2-15.9-12.7-17c-3.5-0.3-7-1.8-10.4-3.2
	C10,115.7-0.4,101.2,0.4,85.7c0.7-15.6,12.5-28.9,28.9-35.4c6.4-2.5,13.2-7.3,16.8-13C58.8,17.7,76.4,8.2,99.5,8
	c23.7-0.2,41.9,9.4,54.7,29.8c3.3,5.3,9.7,9.9,15.6,12.1c16.3,6,28.7,19.5,29.7,34.7c1.1,16.3-9.1,31.1-26.6,38.2
	c-4.3,1.8-9.6,2-13.1,4.7c-4.1,3.2-9.1,8.2-9.4,12.6C149.5,157.1,150.1,174.2,150.1,192z M108,145.3c0-1.7,0-3.3,0-5
	c9.9,0,19.7,0.4,29.5-0.2c2.8-0.2,5.4-3.1,8.1-4.8c-2.5-1.9-4.8-4.9-7.6-5.4c-5.8-1.2-11.8-1.1-17.7-1.5c8.7-3.7,17.1-2.9,25.3-3.9
	c8.2-1,16.4-2.9,24.1-5.7c18.1-6.8,26.1-18.9,24.4-35.3c-1.6-15.8-13.7-26.2-32.7-28.7c-2.9,8.7-5.8,17.3-8.5,25.5
	c-1-13.7,1.3-27.8-3.4-39.1c-8.7-20.6-28.1-28.9-49.6-28.8c-20.9,0.1-39.2,8.2-48.8,27.8C46.6,49,42,53.4,32.3,55.4
	C17.4,58.6,7.5,68.3,6,84.4c-1.4,14.7,7.3,27.3,22.8,33.6c4.3,1.7,8.9,3,13.5,3.7c8.7,1.3,12.1,5.5,11.7,14.7
	c-0.7,16.5-0.2,33-0.2,51.4c29.3,0,56.7,0.2,84.1-0.2c2.6,0,5.1-3.5,7.7-5.3c-2.5-1.9-5-5.3-7.6-5.4c-10-0.6-20.1-0.3-30.2-0.3
	c0.1-1.7,0.2-3.3,0.2-5c9.9,0,19.7,0.4,29.5-0.2c2.8-0.2,5.4-3.1,8.1-4.8c-2.5-1.9-4.9-4.8-7.7-5.4c-5.8-1.2-11.9-1.1-17.9-1.5
	c5.5-3.7,10.8-3.1,15.8-3.9c3.4-0.6,6.4-3.1,9.7-4.8c-3-1.9-6-5.2-9.1-5.4C127,144.8,117.5,145.3,108,145.3z"/>
<g class="st0">
	<path class="st1" d="M183.9,126.9c-56.2,0-110.2,0-164.1,0C11.5,90.1,43.9,52.1,88.6,43c2.1-7.9,3.3-14.9,6.3-21
		c0.7-1.5,10.2-1.3,11.4,0.7c3,5,3.7,11.5,5.9,19.8C153.8,51.1,179.7,77.9,183.9,126.9z M22.9,121.8c52.3,0,103.7,0,155.1,0
		c0.2-2.1,0.4-4.3,0.7-6.4c-25.1-6.2-52,0.7-77.3-7.1c24.7,0,49.4,0,74.2,0c0.2-1.7,0.5-3.5,0.7-5.2c-14-16.3-36.2-0.7-52.1-11.9
		c14.6,0,29.2,0,45.4,0c-6.9-20.1-22.1-11.1-32.9-12.4c-11.9-1.5-24.1-0.3-36.1-0.3c0-1.8,0-3.6,0-5.5c18.2,0,36.4,0,54.6,0
		c0.3-2.1,0.6-4.2,0.9-6.2c-10.5-2.8-21-5.6-31.6-8.4c1.6-1.3,3.6-3,5.6-4.7C80.1,32.1,25,66.8,22.9,121.8z"/>
	<path class="st1" d="M103.1,143.6c0,11.1,0,20.4,0,30.7c4.4,0.8,8.7,1.6,12.9,2.4c-0.1,0.8-0.1,1.5-0.2,2.3c-10.5,0-21,0-31.5,0
		c-0.2-0.7-0.3-1.5-0.5-2.2c4.2-0.6,8.4-1.3,13.1-2c0-10.4,0-20,0-31.9c-23.8,0-47.6,0.2-71.3,0C8.2,142.7,0.3,135.3-0.4,116
		c5.5,26.7,25.4,21.6,42.7,21.6c40.5,0.1,81-0.3,121.6,0.2c16.4,0.2,32.1,0.8,36.5-21.1c0.7,17.6-7.4,25.8-24.5,26.1
		c-19,0.4-38.1,0-57.1,0.1C114,142.9,109.2,143.3,103.1,143.6z"/>
</g>
<g class="st0">
	<path class="st1" d="M4.9,77.1c27.8,0,52.8,0,77.9,0c25.1,0,50.3-0.9,75.3,0.4c11.2,0.6,22.6,4.5,33.1,8.7
		c8.7,3.5,10.8,12.7,6.9,20.3c-5.3,10.4-11.5,21.3-20,29c-21,19.1-47.3,30-74.1,37.2c-42.5,11.4-84.7-19.3-95.5-66.9
		C6.6,97,6.2,87.9,4.9,77.1z M13.5,83.9c-3.3,43.7,33.9,85.3,74.9,84.8c40.2-0.4,77.4-43,73.4-84.8C112.7,83.9,63.5,83.9,13.5,83.9z
		 M150.1,146.7c14.8-7.7,30.1-16.9,38.4-33.4c2.8-5.5,4.3-15.5,1.2-19.2c-3.5-4.3-12.7-4.1-16.6-5.1
		C164.6,110.3,157.3,128.4,150.1,146.7z"/>
	<path class="st1" d="M173.9,183.9c-57.5,0-115,0-173.9,0C7.2,177.3,164.6,176.4,173.9,183.9z"/>
	<path class="st1" d="M85.3,3.8c0,6.4-1.2,13.1,0.3,19c1.6,5.9,6.7,10.8,9.1,16.6c4.7,11.4,1,20.8-10.9,29.7c0.2-4-0.5-6.9,0.6-8.1
		c8.7-9.7,6.2-18.8-0.6-28c-6-8.1-9-16.8-4-26.6c0.5-1,1.3-1.9,2.3-2.5C82.6,3.5,83.6,3.8,85.3,3.8z"/>
	<path class="st1" d="M133.8,196.3c-30.6,0-61.2,0-91.9,0c0-1,0-2,0-3c30.6,0,61.2,0,91.9,0C133.7,194.3,133.8,195.3,133.8,196.3z"
		/>
	<path class="st1" d="M69.3,151.3c-14.2,4.8-44.2-35.8-41-58.9c6.4,12.4,10.8,23.5,17.5,33C52.4,134.9,61.3,142.8,69.3,151.3z"/>
</g>
<g class="st0">
	<path class="st1" d="M31.6,15.6c0.3,0,0.7,0.2,1,0.4l1.2,0.8c5.4,3.6,11,7.3,16.1,11.4c4,3.2,8,6.8,11.8,10.2
		c2.4,2.1,4.8,4.3,7.2,6.4c5.6,4.9,7.7,11.1,6.8,20.2c-0.3,2.9-0.7,5.4-1.2,7.6c-1.3,5.2-0.7,10,1.7,14.1c-2.4-1.4-5.2-2.2-8.4-2.2
		c-2.6,0-5,0.5-7.3,0.9l-0.7,0.1c-2.8,0.5-6.1,1-9.3,1c-2.8,0-5.2-0.4-7.4-1.2c-3.2-1.2-5.5-2.4-6.6-3.7C26.9,71.1,17.6,60,8.7,49.3
		c-1-1.2-1.8-2.7-2.6-4.4c-0.3-0.6-0.6-1.2-0.9-1.8c-0.4-0.7-0.4-1,0.2-1.7c8.7-8.8,17.3-17.3,25.4-25.4
		C31.1,15.8,31.4,15.6,31.6,15.6 M28.4,29.8c-0.3-0.1-0.7-0.2-1.1-0.3c-0.7-0.1-1.6-0.3-2.6-0.3c-2.7,0-4.1,1.4-4.7,2.2
		c-1.7,2.2-1.5,5.1-1.3,6.6c0.1,0.6,0.2,1,0.5,1.5c-1.2-0.5-2.7-0.8-4.5-0.8c-0.9,0-2.7,0.3-4.2,2.1c-0.4,0.5-2.2,2.9-1.5,5.7
		c0.4,1.7,1.3,3.3,2.8,4.8c8.3,8.3,16.6,16.6,24.8,24.9l1.9,1.9l0.2,0.2c0.5,0.6,1.3,1.3,2.4,1.9c1.1,0.6,2.3,1,3.6,1
		c3.8,0,6.8-3.2,6.9-7.3l0-1.7l-0.9-1.3c0,0-0.1-0.1-0.1-0.1c1.4,0.7,2.8,0.8,3.7,0.8c0.6,0,1.2-0.1,1.8-0.2
		c2.4-0.5,3.6-2.4,4.1-3.3c0.1-0.1,0.2-0.3,0.2-0.4l2.4-3.1l-2.3-2.8c0.9,0.4,1.9,0.6,2.9,0.6c3.8,0,6.8-3.1,7-7.1l0.1-1.8l-1.1-1.4
		c-0.1-0.1-0.2-0.2-0.3-0.4c-0.4-0.6-1-1.5-1.9-2.3c-8.9-8.9-17.8-17.8-26.7-26.7l-0.2-0.2c-0.8-0.8-2-2.1-4.1-2.5
		c-0.5-0.1-1-0.2-1.6-0.2c-1,0-3.6,0.2-5.4,2.2c-1.8,2-2,5-1.3,7.1C28.2,29.3,28.3,29.6,28.4,29.8 M145.1,51.5
		c-0.5,3.6,0.7,7.4,3.6,10.3c2.3,2.3,5.4,3.6,8.6,3.6c0.6,0,1.3-0.1,1.9-0.2c-2,1.6-4,2.4-6.3,2.4c-1.2,0-2.5-0.2-3.9-0.6
		c-0.6-0.2-1.3-0.3-2-0.3c-1.4,0-3.2,0.4-4.7,1.5c2.5-3.9,1.4-8,0.9-9.9C142.6,56.4,142.8,54.4,145.1,51.5 M77.2,133.3
		c-1.1,1.6-1.7,3.8-1.6,5.7c0.1,2-0.4,3.5-1.9,4.9c-5,4.9-9.9,9.9-14.8,14.8c-5.2,5.2-10.3,10.3-15.5,15.5c-0.7-3.5-3.6-6.4-7.1-7.1
		c3.9-3.9,7.7-7.7,11.6-11.6c6.2-6.2,12.4-12.4,18.5-18.6c1.9-1.9,3.4-2.2,4.4-2.2c0.3,0,0.6,0,0.9,0.1c0.3,0,0.6,0.1,0.9,0.1
		C74.4,134.9,76.1,134.1,77.2,133.3 M26.2,178.9c0.9,2.5,3,4.6,5.5,5.5c-0.2,0-0.5,0.1-0.7,0.1c-1.2,0-2.4-0.5-3.4-1.5
		C26.4,181.8,26,180.3,26.2,178.9 M179.2,10.7c-0.5,0.3-0.8,0.4-1,0.6c-9.7,9.7-19.4,19.4-29.1,29c-2.5,2.5-5,4.8-7.3,7.4
		c-2.9,3.3-4.7,7.1-3.4,11.8c0.7,2.5,1.1,5-1.5,7.5c-7,6.5-13.7,13.5-20.4,20.3c-5.5,5.5-11,11-16.5,16.6
		c-5.6-5.3-10.8-10.6-16.3-15.6c-4.4-4-5.8-8.7-4.4-14.5c0.7-2.7,1.1-5.5,1.4-8.3c1-9.4-0.9-17.9-8.4-24.4
		C65.7,35.6,59.6,29.7,53,24.4C47.4,19.9,41.4,16,35.4,12c-1.2-0.8-2.5-1.2-3.8-1.2c-1.5,0-3,0.6-4.2,1.9
		c-8.5,8.4-17,16.9-25.5,25.4c-2.1,2.1-2.5,4.7-1.1,7.4c1.3,2.4,2.4,4.9,4.1,6.9c9.1,11,18.3,22,27.8,32.6c2.1,2.4,5.5,4,8.6,5.1
		c3,1.1,6,1.5,9.1,1.5c3.4,0,6.8-0.5,10.2-1.1c2.4-0.4,4.8-0.9,7.2-0.9c3.1,0,6.1,0.9,8.8,3.9c5.3,5.9,11,11.4,16.7,17.2
		c-6.4,6.4-12.5,12.5-18.6,18.5c-0.5,0.5-1.4,0.9-2,0.9c-0.1,0-0.1,0-0.2,0c-0.5-0.1-1.1-0.1-1.6-0.1c-3.1,0-5.6,1.4-7.8,3.6
		c-12.8,12.8-25.6,25.6-38.4,38.4c-4.3,4.3-4.5,10.4-0.5,14.4c1.9,2,4.4,2.9,6.8,2.9c2.6,0,5.3-1.1,7.6-3.4
		c12.9-12.8,25.7-25.7,38.6-38.6c2.4-2.4,3.5-5.2,3.3-8.6c-0.1-1,0.4-2.4,1.1-3.1c21-21.1,42.1-42.2,63.2-63.2
		c0.5-0.5,1.4-0.8,2.2-0.8c0.2,0,0.4,0,0.6,0.1c1.8,0.6,3.6,0.8,5.3,0.8c4.1,0,7.8-1.7,11.1-5.1c11.2-11.3,22.5-22.5,33.7-33.7
		c0.7-0.7,1.3-1.4,2.3-2.5c-1.5,0-2.7,0.1-3.9,0.1c-0.7,0-1.4,0-2-0.1c-0.4-0.1-0.8-0.1-1.2-0.1c-2.6,0-4.5,1.2-6.4,3.2
		c-7.4,7.6-14.9,15-22.4,22.5c-0.8,0.8-1.7,1.7-2.7,2.4c-1.3,0.9-2.7,1.3-4.2,1.3c-1.9,0-3.7-0.7-5.1-2.1c-2.6-2.6-3.1-6.3-0.9-9.1
		c1.7-2.3,3.9-4.2,5.9-6.2c5.4-5.5,10.6-11.3,16.4-16.2c4.9-4.1,6.8-8.7,5.8-14.8C179.3,11.7,179.3,11.4,179.2,10.7L179.2,10.7z
		 M63.4,57.5c-0.4,0-0.7-0.1-1.1-0.3c-0.7-0.4-1.2-1-1.8-1.6C51.8,46.9,43,38.2,34.3,29.4c-0.6-0.6-1.3-1.1-1.5-1.8
		c-0.2-0.7-0.2-1.9,0.3-2.4c0.3-0.4,1.1-0.6,1.8-0.6c0.2,0,0.4,0,0.6,0.1c0.7,0.1,1.3,0.9,1.8,1.4C46.1,35,55,43.9,63.9,52.8
		c0.7,0.7,1.3,1.7,1.7,2.2C65.5,56.6,64.5,57.5,63.4,57.5L63.4,57.5z M54.3,66.6c-0.7,0-1.5-0.2-1.9-0.6c-1.8-1.5-3.5-3.3-5.2-5
		C39.8,53.7,32.4,46.2,25,38.8c-0.5-0.5-1.3-1-1.4-1.5c-0.2-1-0.1-2.2,0.4-2.9c0.1-0.2,0.4-0.2,0.8-0.2c0.6,0,1.3,0.1,1.8,0.2
		c0.4,0.1,0.8,0.6,1.1,1c9,9,18,17.9,26.9,26.9c0.7,0.7,1.2,1.5,2,2.4c-0.6,0.8-1,1.8-1.5,1.9C54.8,66.6,54.6,66.6,54.3,66.6
		L54.3,66.6z M44.7,76.3c-0.4,0-0.8-0.1-1.1-0.3c-0.6-0.3-1.1-0.9-1.6-1.4c-8.9-8.9-17.8-17.8-26.7-26.7c-0.7-0.7-1.3-1.5-1.5-2.4
		c-0.1-0.6,0.6-1.9,1-1.9c0,0,0,0,0,0c1.1,0,2.4,0.2,3.1,0.8c5.3,5.1,10.4,10.2,15.6,15.4c4,4,7.9,7.9,11.9,11.9
		c0.7,0.7,1.1,1.5,1.5,2C46.7,75.4,45.8,76.3,44.7,76.3L44.7,76.3z M34.6,180c-2,0-3.9-1.8-4.1-3.9c-0.1-2.2,1.8-4.3,4-4.3
		c0,0,0.1,0,0.1,0c2.1,0,4,1.8,4.1,3.8c0.2,2.2-1.8,4.3-4,4.3C34.7,180,34.6,180,34.6,180L34.6,180z"/>
	<path class="st1" d="M125,135.7c1.3,0.9,2.6,1.3,3.7,1.6c0.3,0.1,0.6,0.2,0.8,0.3c1,0.4,1.9,0.7,2.8,0.9c0.9,0.3,2.2,0.6,2.6,0.9
		c9.7,9.4,19.4,19.2,28.9,28.7c-3.3,0.8-5.6,3.1-6.4,6.4c-10-10-19.4-19.4-28.8-29c-0.3-0.3-0.6-1.6-0.8-2.5
		c-0.2-0.9-0.5-1.9-0.9-2.9c-0.1-0.2-0.2-0.5-0.2-0.8C126.3,138.3,125.9,137,125,135.7 M173.7,180.6c-0.1,0.9-0.5,1.7-1.3,2.4
		c-0.7,0.8-1.7,1.3-2.7,1.4C171.5,183.6,172.8,182.3,173.7,180.6 M111.6,115.5c-2.4,2.3-4.5,4.4-6.8,6.7c5.4,5.4,10.8,10.7,16,16.1
		c0.8,0.9,1,2.4,1.5,3.6c0.9,2.4,1.1,5.3,2.7,7c12.3,12.7,24.9,25.1,37.4,37.6c1.9,1.9,4.3,2.8,6.7,2.8c2.5,0,4.9-1,6.8-2.9
		c3.6-3.7,3.6-9.3-0.3-13.2c-12.4-12.5-24.8-25-37.4-37.2c-1.7-1.6-4.6-1.9-6.9-2.9c-1.3-0.5-2.9-0.7-3.8-1.6
		C122.1,126.2,116.8,120.8,111.6,115.5L111.6,115.5z M165.7,180.3c-2.1,0-4-1.8-3.8-3.9c0.2-2.3,1.6-3.5,4-3.7
		c2.3,0.2,3.7,1.5,3.7,3.8c0,2.3-1.4,3.7-3.7,3.8C165.9,180.3,165.8,180.3,165.7,180.3L165.7,180.3z"/>
</g>
<path class="st3" d="M69.8,196c8.1-0.5,16.1-1.1,26-1.7c0-17.3,0.4-34.5-0.3-51.8c-0.1-3.2-4.4-6.5-7.2-9.3
	c-22-21.6-44.1-43-66.1-64.5C20,66.6,18,64.1,14,59.6c20.1,0,37.7,0.2,55.2,0c15.3-0.2,33.2,4,45.2-2.5c11.5-6.3,17-23.8,25.1-36.4
	c4.4-6.8,8.7-13.5,12.9-20.1C177.1,10.8,185.7,16.8,186,25c-10.4-5.5-20.3-10.7-31-16.4c-9.1,14.3-17.9,28.3-26.7,42.3
	c-1.4,2.3-2.4,4.9-4.2,8.8c20.2,0,39,0,57.8,0c0.6,0.9,1.1,1.9,1.7,2.8c-7.8,7.3-15.6,14.5-23.3,22c-17.2,16.6-34.5,33.1-51.2,50.2
	c-3.5,3.6-5.9,9.6-6.1,14.6c-0.8,14.8-0.3,29.7-0.3,46.5c9.5,0,17.5,0,25.5,0c0,1.3-0.1,2.5-0.1,3.8c-19.3,0-38.7,0-58,0
	C70,198.3,69.9,197.1,69.8,196z M97.6,133.7c13.5-14.3,25.8-27.3,36.5-38.7c-22.7,0-47.9,0-71.5,0C74.3,107.9,86.2,121,97.6,133.7z
	 M32,66.8c10,17.4,23.8,24.2,42.3,21.1c2-0.3,4,0,6.1,0c19.5,0,20.6-0.8,28.3-21.1C83.2,66.8,58,66.8,32,66.8z M107.3,87.4
	c22.9,0.5,46.5,6.1,58.9-21.2c-10.4,0-20.4,0-30.5,0C115.8,66.3,115.8,66.3,107.3,87.4z"/>
<g class="st0">
	<path class="st1" d="M154.9,143.9c2.1,15.4,4,30.4,6.1,46c4.4,0.5,8.4,0.9,12.4,1.4c0.2,1.5,0.3,3,0.5,4.5
		c-10.1,1.4-20.3,2.8-30.4,4.3c-0.4-1.4-0.8-2.8-1.3-4.1c3.6-1.6,7.2-3.2,12-5.3c-1.8-13.7-3.4-27.8-5.6-41.8
		c-0.3-2.1-2.9-4.8-5.1-5.6c-30-10.9-35.6-37.3-42.4-65.3c27.5-3.7,53.5-7.1,79.4-10.6C190,94.1,178.8,128.1,154.9,143.9z
		 M174.8,99.8c-20.5,0-40.2,0-60.1,0c6.2,22.3,21.3,38.2,34.8,37.3C162,136.1,172.1,121.5,174.8,99.8z M109.3,84.1
		c4.3,9.1,43.2,12.3,66.8,6.7c0-4.9,0-9.9,0-16.1c-18.6,2.4-36.3,4.6-53.9,6.9C118.2,82.1,114.3,83.1,109.3,84.1z"/>
	<path class="st1" d="M50.1,197.8c-10.1-2-20.1-3.9-30.2-5.9c0.2-1.4,0.3-2.8,0.5-4.2c4-0.4,8.1-0.8,12.7-1.2
		c2.5-13.2,5.1-26.4,7.3-39.6c0.4-2.4-0.1-6.5-1.7-7.6C16,123.5,15.6,99.8,16.2,75.8c0.1-3.6,0.8-7.2,1.5-12.5
		c26.5,4.8,52.4,9.4,78.1,14.1c2.4,22.7-18.3,56.6-39.1,62.5c-7.6,2.1-9.5,5.9-10.6,12.4c-1.9,11.6-4,23.2-6.2,35.5
		c4,2.1,7.7,3.9,11.4,5.8C51,194.9,50.6,196.4,50.1,197.8z M24.7,99.4c0.5,19.2,11.2,34.6,24.1,35.3c13.1,0.7,30.6-17.2,34.1-35.3
		C63.5,99.4,44.1,99.4,24.7,99.4z M90.6,87.5c-0.6-1.6-1.2-3.1-1.8-4.7C67.3,78.9,45.9,75,24.5,71.1c-4.8,20.6-4.2,21.5,14.7,21.5
		c13.4,0,26.9,0.4,40.3-0.2C83.3,92.2,86.9,89.2,90.6,87.5z"/>
	<path class="st1" d="M132.5,13.8c-3.9,10.8-7.7,21.5-11.6,32.3c-1.8-0.6-3.6-1.2-5.5-1.7c3.7-10.8,7.4-21.6,11.1-32.3
		C128.6,12.6,130.6,13.2,132.5,13.8z"/>
	<path class="st1" d="M38.2,33.1c7.8,8.1,15.5,16.1,23.3,24.2c-0.5,0.5-1,0.9-1.6,1.4c-7.8-8-15.5-16-23.3-23.9
		C37.1,34.2,37.6,33.6,38.2,33.1z"/>
	<path class="st1" d="M62.9,45.2c-6.7-10.3-12.4-19.1-18.1-27.9C56.8,19.9,65.7,35,62.9,45.2z"/>
	<path class="st1" d="M104.8,0c0.5,12.1,1.1,24.3,1.7,38.3C98.5,31.8,96.9,9.6,104.8,0z"/>
	<path class="st1" d="M157,24.1c-6.5,8.3-13.1,16.7-20.1,25.7c-3.5-8,5.8-21.6,17.3-27.9C155.1,22.6,156,23.3,157,24.1z"/>
	<path class="st1" d="M82.8,47.8C78.5,34.6,75,24.1,71.6,13.5C82.7,20.9,88.1,38.7,82.8,47.8z"/>
	<path class="st1" d="M156,53.3c-7.4,4.1-14.8,8.3-23.1,12.9C133.4,56.8,144.2,49.9,156,53.3z"/>
</g>
<g class="st0">
	<path class="st1" d="M0,199c0-24.9,0-49.2,0-75.1c7.4,0,14.8,0,23.3,0c0-10.3,0-19.1,0-29.5c8.5-0.4,15.9-0.7,24.6-1.1
		c0-9.3,0-18.1,0-28.1c14,0,26.8,0,41,0c0-8.8,0-16.3,0-24.7c7.9,0,14.5,0,22.1,0c0,7.9,0,15.1,0,23.6c13.8,0,26.6,0,41.1,0
		c0,10.3,0,19.4,0,29c8.9,0.5,16.1,0.8,24.8,1.3c0,9.5,0,18.6,0,28.7c8.4,0,15.2,0,23.1,0c0,25.8,0,50.7,0,75.8
		C133.2,199,67,199,0,199z M3.8,130.5c2.7,8.9,2.6,18.1,7.2,22.3c21.7,19.9,22.3,19.4,46.4,3.1c0.7-0.5,1.4-0.8,2.1-1.3
		c5.8-5,11.3-4.8,17.5,0c7.4,5.7,15.3,10.6,23.3,16c7.4-5,14.9-9.3,21.4-14.7c7.7-6.4,14.2-5.8,21.6,0.1c6.6,5.3,13.9,9.6,21.6,14.8
		c11.8-12.1,36.5-13.9,28.3-40.3C131.1,130.5,69.4,130.5,3.8,130.5z M194.1,158.4c-7.8,5.4-13.7,9-19,13.3
		c-7.1,5.7-14.1,6.8-20.7,0.2c-14.9-15-29.4-15.8-44.1,0c-0.3,0.3-0.7,0.4-1,0.6c-6.2,5.3-11.9,4.6-18.6,0
		C68.4,157,68.1,157,46,172.2c-7.1,4.8-12.8,5.6-19.7,0c-5.8-4.7-12.4-8.3-19.4-12.9c0,12.3,0,22.7,0,33c62.9,0,125,0,187.1,0
		C194.1,181.2,194.1,171.2,194.1,158.4z M31.1,120.5c47.1,0,92.8,0,138.4,0c0-6.9,0-12.9,0-19.1c-46.5,0-92.2,0-138.4,0
		C31.1,108.1,31.1,114,31.1,120.5z M144.8,91.8c0-6.6,0-13.1,0-19.5c-30.2,0-59.6,0-89,0c0,7,0,13,0,19.5
		C85.6,91.8,114.7,91.8,144.8,91.8z"/>
	<path class="st1" d="M100.4,1c14.1,12.5,15.9,20.8,5.9,36.5c-1.4-3.1-2.5-5.6-4.6-10.4c-2.1,4.7-3.3,7.2-5.1,11.2
		C82.1,21.7,97,12.2,100.4,1z"/>
</g>
<g class="st0">
	<path class="st1" d="M102.3,0c0.3,6.5,1.1,13,0.8,19.4c-0.3,7.4,0.8,11.5,9.4,14.3c16.2,5.4,24.3,23.1,20.7,39.7
		c-3.2,14.8-19.1,27.2-33.9,26.6c-16.5-0.8-30.7-12.5-33-27.4c-3-18.9,5-33.9,22.6-39.3c7.3-2.2,7.7-6.1,7.6-11.9
		c-0.1-7.1,0-14.2,0-21.4C98.5,0,100.4,0,102.3,0z M127.4,65.5c0.1-15.4-12.1-28.1-27.3-28.4c-14.7-0.3-28.2,12.8-28.5,27.6
		c-0.3,15.7,12.6,28.8,28.3,28.6C115.6,93.2,127.3,81.3,127.4,65.5z"/>
	<path class="st1" d="M52,139c32.3,0,63.6,0,95.7,0c2.1,13.3-4.9,22.1-14.4,28.2c-20.2,13-41.8,13.6-63.2,2.8
		C56.7,163.3,51.2,153.2,52,139z M141,145.7c-27.5,0-54.7,0-82.2,0c4.8,15.8,20.2,25.4,40.3,25.7C119.7,171.6,135.7,162.1,141,145.7
		z"/>
	<path class="st1" d="M51,164.4c-8.8,5.9-14.6,9.8-20.8,13.9c23.3,21.8,111.8,22.2,139.7-0.1c-8.8-4.8-16.6-9-24.3-13.2
		c0.7-1.5,1.5-3,2.2-4.5c7.7,3.6,16.6,5.8,22.8,11.2c7.6,6.6,3.9,14.7-4.5,17.6c-14.1,4.8-28.8,10.3-43.3,10.7
		c-24,0.7-48.2-2.3-72.3-4.1c-4.4-0.3-8.9-2.4-13-4.3c-6.5-2.9-14.5-6.2-11.6-15.2C29.1,166.7,37.7,164.1,51,164.4z"/>
	<path class="st1" d="M58.2,98c21,3.3,42,6.8,63.1,9.7c9,1.3,10.4,6.6,9.9,14.2c-0.6,8.6-5.4,12-13.4,10.9
		c-22.3-3.2-44.6-6.5-66.9-10c-8.5-1.3-8.4-7.6-7.8-14.4C44,98.5,50.1,97.2,58.2,98z M122.8,127.3c1-1.1,2-2.1,3-3.2
		c-2.2-3.6-4-10-6.8-10.5c-20.9-3.8-41.9-6.6-63-9.1c-2.2-0.3-5.9,3.5-7.1,6.2c-0.6,1.3,2.9,6.1,5,6.5
		C76.9,120.9,99.8,124,122.8,127.3z"/>
</g>
</svg>
